<svg class="animated" id="freepik_stories-vintage-truck" xmlns="http://www.w3.org/2000/svg" viewBox="0 0 500 500" version="1.1" xmlns:xlink="http://www.w3.org/1999/xlink" xmlns:svgjs="http://svgjs.com/svgjs"><style>svg#freepik_stories-vintage-truck:not(.animated) .animable {opacity: 0;}svg#freepik_stories-vintage-truck.animated #freepik--Floor--inject-139 {animation: 1.5s Infinite  linear floating;animation-delay: -1s;}svg#freepik_stories-vintage-truck.animated #freepik--Plants--inject-139 {animation: 1s 1 forwards cubic-bezier(.36,-0.01,.5,1.38) slideDown,1.5s Infinite  linear floating;animation-delay: 0s,0.5s;}svg#freepik_stories-vintage-truck.animated #freepik--Truck--inject-139 {animation: 1s 1 forwards cubic-bezier(.36,-0.01,.5,1.38) lightSpeedLeft,1.5s Infinite  linear floating;animation-delay: 0.0s,0.5s;}svg#freepik_stories-vintage-truck.animated #freepik--Sun--inject-139 {animation: 1s 1 forwards cubic-bezier(.36,-0.01,.5,1.38) fadeIn,1.5s Infinite  linear floating;animation-delay: 0s,0.5s;}svg#freepik_stories-vintage-truck.animated #freepik--Birds--inject-139 {animation: 1.5s Infinite  linear floating;animation-delay: -1s;}            @keyframes floating {                0% {                    opacity: 1;                    transform: translateY(0px);                }                50% {                    transform: translateY(-10px);                }                100% {                    opacity: 1;                    transform: translateY(0px);                }            }                    @keyframes slideDown {                0% {                    opacity: 0;                    transform: translateY(-30px);                }                100% {                    opacity: 1;                    transform: translateY(0);                }            }                    @keyframes lightSpeedLeft {              from {                transform: translate3d(-50%, 0, 0) skewX(20deg);                opacity: 0;              }              60% {                transform: skewX(-10deg);                opacity: 1;              }              80% {                transform: skewX(2deg);              }              to {                opacity: 1;                transform: translate3d(0, 0, 0);              }            }                    @keyframes fadeIn {                0% {                    opacity: 0;                }                100% {                    opacity: 1;                }            }        </style><g id="freepik--background-complete--inject-139" class="animable" style="transform-origin: 249.389px 179.19px;"><path d="M394.63,167.08c.35-2.53-3.22-4.61-5.9-4.82a15.62,15.62,0,0,1-3.82-.33c-2.62-.92-3.67-4.31-6.23-5.39-1.91-.8-4.12-.09-6,.85s-3.69,2.11-5.77,2.24c-1.8.12-3.76-.55-5.34.33-1.17.65-1.79,2-2.87,2.81a6.86,6.86,0,0,1-3.76,1,10.49,10.49,0,0,0-3.87.63,3.06,3.06,0,0,0-1.94,3.11Z" style="fill: rgb(245, 245, 245); transform-origin: 371.887px 161.852px;" id="ela2zzlhz3z1e" class="animable"></path><path d="M91,36.64c.39-2.88-3.67-5.25-6.72-5.49-1.45-.12-3,.1-4.34-.38-3-1-4.18-4.9-7.1-6.13-2.18-.92-4.69-.1-6.8,1S61.8,28,59.44,28.16c-2,.13-4.28-.63-6.07.37-1.34.75-2,2.29-3.28,3.2a7.78,7.78,0,0,1-4.28,1.16,11.94,11.94,0,0,0-4.41.72,3.47,3.47,0,0,0-2.2,3.54Z" style="fill: rgb(245, 245, 245); transform-origin: 65.1063px 30.6962px;" id="eltpvqg6qhmbr" class="animable"></path><path d="M276.78,56.9c.57-4.09-5.21-7.45-9.55-7.8-2.07-.17-4.21.15-6.17-.54-4.25-1.48-5.95-7-10.09-8.71-3.1-1.31-6.67-.14-9.67,1.37s-6,3.41-9.33,3.63c-2.92.18-6.09-.9-8.64.53-1.9,1.06-2.9,3.25-4.65,4.54s-4,1.54-6.09,1.65-4.33.14-6.27,1-3.54,2.94-3.14,5Z" style="fill: rgb(245, 245, 245); transform-origin: 239.969px 48.4264px;" id="elgpwge5ioekr" class="animable"></path><path d="M430.4,38.6c.53-3.83-4.88-7-8.94-7.3-1.94-.16-3.95.14-5.78-.5-4-1.39-5.57-6.53-9.45-8.16-2.89-1.22-6.23-.14-9,1.28s-5.59,3.19-8.73,3.4c-2.74.17-5.7-.84-8.09.49-1.78,1-2.72,3.05-4.36,4.26a10.36,10.36,0,0,1-5.69,1.54,16,16,0,0,0-5.87,1c-1.82.83-3.32,2.75-2.94,4.71Z" style="fill: rgb(245, 245, 245); transform-origin: 395.963px 30.715px;" id="ely95vtf907dg" class="animable"></path><path d="M66.49,124.75c.35-2.52-3.22-4.6-5.9-4.82a15.15,15.15,0,0,1-3.82-.33c-2.62-.91-3.67-4.3-6.23-5.38-1.91-.81-4.12-.09-6,.84s-3.69,2.11-5.77,2.24c-1.8.12-3.76-.55-5.34.33-1.17.66-1.79,2-2.87,2.81a6.88,6.88,0,0,1-3.76,1,10.54,10.54,0,0,0-3.88.63A3.09,3.09,0,0,0,21,125.2Z" style="fill: rgb(245, 245, 245); transform-origin: 43.7512px 119.534px;" id="elwc1ozuzek8l" class="animable"></path><path d="M430.29,104.58c-.71.35-19.71,10.2-19.71,10.2l3.87,4.75,16.89-13Z" style="fill: rgb(224, 224, 224); transform-origin: 420.96px 112.055px;" id="eli4t5jqkqcp" class="animable"></path><path d="M433.07,110c-.56.55-15.68,15.71-15.68,15.71l5.13,3.35,12.15-17.53Z" style="fill: rgb(224, 224, 224); transform-origin: 426.03px 119.53px;" id="elnchfb83krnj" class="animable"></path><path d="M427.66,99.11c-.79.09-21.57,1.1-21.57,1.1l1.49,7.37L428,101.3Z" style="fill: rgb(224, 224, 224); transform-origin: 417.045px 103.345px;" id="elm2fgl2sz0a" class="animable"></path><path d="M428.21,93.32c-.77-.14-21-5-21-5l-.65,7.49,21.33-.27Z" style="fill: rgb(224, 224, 224); transform-origin: 417.385px 92.065px;" id="elxgns967kua" class="animable"></path><path d="M431.78,88.94c-.62-.49-16.16-14.33-16.16-14.33l-4.1,6.3,19,9.81Z" style="fill: rgb(224, 224, 224); transform-origin: 421.65px 82.665px;" id="el5scrtru6pxw" class="animable"></path><path d="M436.17,86.76c-.29-.73-6.91-20.46-6.91-20.46l-6.68,3.44,11.58,17.91Z" style="fill: rgb(224, 224, 224); transform-origin: 429.375px 76.975px;" id="elapuai31mtc" class="animable"></path><path d="M442.66,86.12c.07-.78,3.33-21.33,3.33-21.33l-7.51-.05,2,21.24Z" style="fill: rgb(224, 224, 224); transform-origin: 442.235px 75.43px;" id="el3bys8wyfwsg" class="animable"></path><path d="M448.63,99.82a5.75,5.75,0,1,1-5.75-5.75A5.74,5.74,0,0,1,448.63,99.82Z" style="fill: rgb(224, 224, 224); transform-origin: 442.88px 99.82px;" id="elxmqvbnatnj" class="animable"></path><path d="M421.65,294.77c-.31,0,3.53-41.19,8.57-91.91s9.36-91.84,9.67-91.81-3.53,41.18-8.57,91.92S422,294.8,421.65,294.77Z" style="fill: rgb(224, 224, 224); transform-origin: 430.77px 202.91px;" id="elebrvn83ubu" class="animable"></path><path d="M466,293.48c-.31,0-4.63-40.25-9.65-90s-8.85-90.06-8.54-90.09,4.62,40.25,9.65,90S466.34,293.45,466,293.48Z" style="fill: rgb(224, 224, 224); transform-origin: 456.907px 203.435px;" id="el1cqi53r14kf" class="animable"></path><path d="M454.25,178.57c0,.31-4.44.56-9.92.56s-9.92-.25-9.92-.56,4.44-.55,9.92-.55S454.25,178.27,454.25,178.57Z" style="fill: rgb(224, 224, 224); transform-origin: 444.33px 178.575px;" id="el2a43xbux2hh" class="animable"></path><path d="M458.51,223.69c0,.31-6.49.55-14.49.55s-14.48-.24-14.48-.55,6.48-.56,14.48-.56S458.51,223.38,458.51,223.69Z" style="fill: rgb(224, 224, 224); transform-origin: 444.025px 223.685px;" id="elayis5dv3j3k" class="animable"></path><path d="M463.77,269.68c0,.31-8.79.56-19.64.56s-19.64-.25-19.64-.56,8.8-.56,19.64-.56S463.77,269.37,463.77,269.68Z" style="fill: rgb(224, 224, 224); transform-origin: 444.13px 269.68px;" id="ell3gqovcavb9" class="animable"></path><path d="M443.41,103.35c.31,0,.92,42.56,1.37,95.05s.56,95.07.25,95.08-.92-42.55-1.36-95.07S443.11,103.35,443.41,103.35Z" style="fill: rgb(224, 224, 224); transform-origin: 444.225px 198.415px;" id="eltdinm2if0w" class="animable"></path><path d="M469.27,100.79a2.19,2.19,0,0,1,0-.44c0-.32-.06-.74-.1-1.28,0-.29,0-.6-.06-.95s-.11-.72-.17-1.12a21.64,21.64,0,0,0-.57-2.79,26.27,26.27,0,0,0-3-7.15,27,27,0,0,0-35.69-9.88,26.08,26.08,0,0,0-3.28,2.11,29.44,29.44,0,0,0-3,2.58,30.2,30.2,0,0,0-2.62,3.1,25.93,25.93,0,0,0-3.82,7.37,26.53,26.53,0,0,0,0,16.89,25.93,25.93,0,0,0,3.82,7.37,31.44,31.44,0,0,0,2.62,3.11,30.73,30.73,0,0,0,3,2.58,24.74,24.74,0,0,0,6.77,3.65,26.87,26.87,0,0,0,32.2-11.43,26.27,26.27,0,0,0,3-7.15,21.87,21.87,0,0,0,.57-2.78c.06-.41.13-.78.17-1.13s0-.66.06-.94c0-.55.07-1,.1-1.29a2.14,2.14,0,0,1,0-.43,2.44,2.44,0,0,1,0,.44c0,.31,0,.74,0,1.28,0,.29,0,.61,0,.95s-.1.73-.15,1.14a19.82,19.82,0,0,1-.52,2.81,25.93,25.93,0,0,1-2.95,7.26,27.23,27.23,0,0,1-18.31,12.9,27.33,27.33,0,0,1-14.33-1.15,28,28,0,0,1-3.57-1.56,29.14,29.14,0,0,1-3.35-2.14,32,32,0,0,1-3.1-2.63,32.62,32.62,0,0,1-2.68-3.16,26.43,26.43,0,0,1-3.91-7.53,27,27,0,0,1,0-17.23,26.5,26.5,0,0,1,3.91-7.52A25.08,25.08,0,0,1,426,78.86a24.48,24.48,0,0,1,6.92-3.7A27.15,27.15,0,0,1,465.58,86.9a26.05,26.05,0,0,1,2.95,7.26,19.82,19.82,0,0,1,.52,2.81c.05.41.12.79.15,1.14s0,.66,0,1c0,.55,0,1,0,1.29A2.44,2.44,0,0,1,469.27,100.79Z" style="fill: rgb(224, 224, 224); transform-origin: 442.134px 100.786px;" id="elutkmf0zczl" class="animable"></path><path d="M452.36,92c.87.12,20.3-5.68,20.3-5.68l-5.44-9.53L451.73,90.24Z" style="fill: rgb(224, 224, 224); transform-origin: 462.195px 84.3959px;" id="el9wrfjsl6mwe" class="animable"></path><path d="M447.85,87.48c.56-.55,16.74-15.15,16.74-15.15l-7.65-5.86-10.7,20.27Z" style="fill: rgb(224, 224, 224); transform-origin: 455.415px 76.975px;" id="elzcunud0r2f" class="animable"></path><path d="M454.69,99.37c.78-.08,21.56-1.1,21.56-1.1l-1.49-7.36-20.38,6.28Z" style="fill: rgb(224, 224, 224); transform-origin: 465.315px 95.14px;" id="elh2yfgamewct" class="animable"></path><path d="M453.72,106.74c.77.18,20.75,6,20.75,6l1-7.45-21.32-.69Z" style="fill: rgb(224, 224, 224); transform-origin: 464.595px 108.67px;" id="el711vmtti1lg" class="animable"></path><path d="M450.8,111.64C451.42,112.13,467,126,467,126l4.1-6.3-18.94-9.81Z" style="fill: rgb(224, 224, 224); transform-origin: 460.95px 117.945px;" id="el3jodw602xrn" class="animable"></path><path d="M446.24,112.57c.29.73,6.91,20.46,6.91,20.46l6.69-3.44-11.58-17.91Z" style="fill: rgb(224, 224, 224); transform-origin: 453.04px 122.355px;" id="elgo36ftyjr4v" class="animable"></path><path d="M438.35,112.05c-.16.77-5.72,20.83-5.72,20.83l7.47.89.42-21.33Z" style="fill: rgb(224, 224, 224); transform-origin: 436.575px 122.91px;" id="el3dzymf51qiw" class="animable"></path><rect x="98.42" y="85.28" width="8.95" height="166.91" rx="4.15" style="fill: rgb(224, 224, 224); transform-origin: 102.895px 168.735px;" id="elvjwqwid2ay" class="animable"></rect><path d="M132.36,39.28h0A26.76,26.76,0,0,1,159.12,66V249.67a5.39,5.39,0,0,1-5.39,5.39H111a5.39,5.39,0,0,1-5.39-5.39V66A26.76,26.76,0,0,1,132.36,39.28Z" style="fill: rgb(235, 235, 235); transform-origin: 132.365px 147.17px;" id="el905wdt72r45" class="animable"></path><rect x="57.75" y="252.19" width="103.26" height="3.9" style="fill: rgb(235, 235, 235); transform-origin: 109.38px 254.14px;" id="elgvnmeaznxug" class="animable"></rect><rect x="62.14" y="255.06" width="96.98" height="43.51" style="fill: rgb(235, 235, 235); transform-origin: 110.63px 276.815px;" id="eljt95xbuhyzd" class="animable"></rect><rect x="103.75" y="63.64" width="57.94" height="3.48" rx="1.39" style="fill: rgb(224, 224, 224); transform-origin: 132.72px 65.38px;" id="el00e4rjpejjrzc" class="animable"></rect><path d="M160.29,67.12a3,3,0,0,1,.31-.06,1.38,1.38,0,0,0,.73-.48,1.42,1.42,0,0,0,.27-.58,6.76,6.76,0,0,0,0-.8,1.35,1.35,0,0,0-1-1.44c-3,0-7.44,0-12.88,0l-42.58.07a1.18,1.18,0,0,0-1,.65,1.42,1.42,0,0,0-.12.66c0,.24,0,.54,0,.73a1.18,1.18,0,0,0,.79.94,2.13,2.13,0,0,0,.69,0h18l19.15,0,12.9.07,3.51,0,.91,0a1.2,1.2,0,0,1,.31,0l-.31,0-.91,0-3.51,0-12.9.07-19.15,0-11.3,0h-6.74a2.46,2.46,0,0,1-.83-.08,1.62,1.62,0,0,1-1.1-1.29c0-.31,0-.53,0-.8a1.75,1.75,0,0,1,.17-.85,1.6,1.6,0,0,1,1.45-.91l42.58.07c5.46,0,9.84,0,12.92.11a1.5,1.5,0,0,1,1.11,1.61,5.43,5.43,0,0,1,0,.82,1.57,1.57,0,0,1-.31.62,1.38,1.38,0,0,1-.79.46A1,1,0,0,1,160.29,67.12Z" style="fill: rgb(224, 224, 224); transform-origin: 132.652px 65.07px;" id="el0s3wslt79kyh" class="animable"></path><path d="M159.52,75.79c0,.12-12,.22-26.89.22s-26.89-.1-26.89-.22,12-.23,26.89-.23S159.52,75.66,159.52,75.79Z" style="fill: rgb(224, 224, 224); transform-origin: 132.63px 75.785px;" id="elojp1nn6fe4p" class="animable"></path><path d="M159.52,86.29c0,.13-12,.23-26.89.23s-26.89-.1-26.89-.23,12-.22,26.89-.22S159.52,86.17,159.52,86.29Z" style="fill: rgb(224, 224, 224); transform-origin: 132.63px 86.295px;" id="elzeq7khv3go" class="animable"></path><path d="M159.52,96.8c0,.12-12,.22-26.89.22s-26.89-.1-26.89-.22,12-.22,26.89-.22S159.52,96.68,159.52,96.8Z" style="fill: rgb(224, 224, 224); transform-origin: 132.63px 96.8px;" id="elul0ew0jfioc" class="animable"></path><path d="M159.52,107.31c0,.12-12,.22-26.89.22s-26.89-.1-26.89-.22,12-.23,26.89-.23S159.52,107.18,159.52,107.31Z" style="fill: rgb(224, 224, 224); transform-origin: 132.63px 107.305px;" id="el5ugs94501gc" class="animable"></path><path d="M159.52,117.81c0,.13-12,.23-26.89.23s-26.89-.1-26.89-.23,12-.22,26.89-.22S159.52,117.69,159.52,117.81Z" style="fill: rgb(224, 224, 224); transform-origin: 132.63px 117.815px;" id="elh9qocdveeyn" class="animable"></path><path d="M159.52,128.32c0,.13-12,.23-26.89.23s-26.89-.1-26.89-.23,12-.22,26.89-.22S159.52,128.2,159.52,128.32Z" style="fill: rgb(224, 224, 224); transform-origin: 132.63px 128.325px;" id="eltorv5s2w27c" class="animable"></path><path d="M159.52,138.83c0,.12-12,.22-26.89.22s-26.89-.1-26.89-.22,12-.23,26.89-.23S159.52,138.7,159.52,138.83Z" style="fill: rgb(224, 224, 224); transform-origin: 132.63px 138.825px;" id="eloph96k6c7j8" class="animable"></path><path d="M159.52,149.34c0,.12-12,.22-26.89.22s-26.89-.1-26.89-.22,12-.23,26.89-.23S159.52,149.21,159.52,149.34Z" style="fill: rgb(224, 224, 224); transform-origin: 132.63px 149.335px;" id="elq2ae2suma1i" class="animable"></path><path d="M159.52,159.84c0,.13-12,.23-26.89.23s-26.89-.1-26.89-.23,12-.22,26.89-.22S159.52,159.72,159.52,159.84Z" style="fill: rgb(224, 224, 224); transform-origin: 132.63px 159.845px;" id="elqkehxmb69h" class="animable"></path><path d="M159.52,170.35c0,.12-12,.22-26.89.22s-26.89-.1-26.89-.22,12-.22,26.89-.22S159.52,170.23,159.52,170.35Z" style="fill: rgb(224, 224, 224); transform-origin: 132.63px 170.35px;" id="el0j5zmcx1t81p" class="animable"></path><path d="M159.52,180.86c0,.12-12,.22-26.89.22s-26.89-.1-26.89-.22,12-.23,26.89-.23S159.52,180.73,159.52,180.86Z" style="fill: rgb(224, 224, 224); transform-origin: 132.63px 180.855px;" id="elfpr8jn6uauj" class="animable"></path><path d="M159.52,191.36c0,.13-12,.23-26.89.23s-26.89-.1-26.89-.23,12-.22,26.89-.22S159.52,191.24,159.52,191.36Z" style="fill: rgb(224, 224, 224); transform-origin: 132.63px 191.365px;" id="elosshzoe9zvl" class="animable"></path><path d="M159.52,201.87c0,.12-12,.22-26.89.22s-26.89-.1-26.89-.22,12-.22,26.89-.22S159.52,201.75,159.52,201.87Z" style="fill: rgb(224, 224, 224); transform-origin: 132.63px 201.87px;" id="el3jcc3fyuqw" class="animable"></path><path d="M159.52,212.38c0,.12-12,.22-26.89.22s-26.89-.1-26.89-.22,12-.23,26.89-.23S159.52,212.25,159.52,212.38Z" style="fill: rgb(224, 224, 224); transform-origin: 132.63px 212.375px;" id="el985m3qeweq7" class="animable"></path><path d="M159.52,223.2c0,.12-12,.22-26.89.22s-26.89-.1-26.89-.22,12-.23,26.89-.23S159.52,223.07,159.52,223.2Z" style="fill: rgb(224, 224, 224); transform-origin: 132.63px 223.195px;" id="el6wyylzgembc" class="animable"></path><path d="M159.52,234c0,.13-12,.23-26.89.23s-26.89-.1-26.89-.23,12-.22,26.89-.22S159.52,233.89,159.52,234Z" style="fill: rgb(224, 224, 224); transform-origin: 132.63px 234.005px;" id="elyqvhy19rb5j" class="animable"></path><path d="M159.52,244.83c0,.13-12,.23-26.89.23s-26.89-.1-26.89-.23,12-.22,26.89-.22S159.52,244.71,159.52,244.83Z" style="fill: rgb(224, 224, 224); transform-origin: 132.63px 244.835px;" id="eljb9i5dcldvq" class="animable"></path><path d="M57.75,256.09s0-.29,0-.93,0-1.64,0-3v-.06h0C69.44,252,111.27,252,161,252h.23v4.34H161l-73.25-.09-22-.07-6,0-1.53,0h-.52l.55,0,1.57,0,6,0L87.93,256l73.08-.09-.22.23v-3.9l.22.22h0c-49.74,0-91.57-.07-103.26-.16l.06-.06c0,1.32,0,2.28,0,2.94S57.75,256.09,57.75,256.09Z" style="fill: rgb(224, 224, 224); transform-origin: 109.465px 254.17px;" id="elz0wbe8rxcw" class="animable"></path><polygon points="333.43 200.61 418.32 200.61 427.34 241.32 333.43 241.32 333.43 200.61" style="fill: rgb(224, 224, 224); transform-origin: 380.385px 220.965px;" id="eltk0g82k5wq" class="animable"></polygon><rect x="333.43" y="241.01" width="86.51" height="57.56" style="fill: rgb(235, 235, 235); transform-origin: 376.685px 269.79px;" id="elh9vmvqvmbla" class="animable"></rect><polygon points="333.43 298.57 333.43 183.58 302.42 129.43 241.25 97.02 185.6 130.28 155.68 186.14 155.68 298.57 333.43 298.57" style="fill: rgb(245, 245, 245); transform-origin: 244.555px 197.795px;" id="eljcwyq6t74h" class="animable"></polygon><path d="M333.82,221c0,.13-39.88.23-89.06.23s-89.07-.1-89.07-.23,39.87-.22,89.07-.22S333.82,220.84,333.82,221Z" style="fill: rgb(224, 224, 224); transform-origin: 244.755px 221.005px;" id="elj2ltq18todg" class="animable"></path><path d="M333.82,229.74c0,.12-39.88.22-89.06.22s-89.07-.1-89.07-.22,39.87-.22,89.07-.22S333.82,229.62,333.82,229.74Z" style="fill: rgb(224, 224, 224); transform-origin: 244.755px 229.74px;" id="elwzcdyb7zib" class="animable"></path><path d="M333.82,238.52c0,.12-39.88.22-89.07.22s-89.07-.1-89.07-.22,39.87-.23,89.07-.23S333.82,238.39,333.82,238.52Z" style="fill: rgb(224, 224, 224); transform-origin: 244.75px 238.515px;" id="elf1q9nzr54u" class="animable"></path><path d="M333.82,247.29c0,.12-39.88.23-89.07.23s-89.07-.11-89.07-.23,39.87-.22,89.07-.22S333.82,247.17,333.82,247.29Z" style="fill: rgb(224, 224, 224); transform-origin: 244.75px 247.295px;" id="eljwj1doec3sq" class="animable"></path><path d="M333.82,256.07c0,.12-39.88.22-89.06.22s-89.07-.1-89.07-.22,39.87-.23,89.07-.23S333.82,255.94,333.82,256.07Z" style="fill: rgb(224, 224, 224); transform-origin: 244.755px 256.065px;" id="elj9k0od9q5p" class="animable"></path><path d="M333.82,264.84c0,.13-39.88.23-89.06.23s-89.07-.1-89.07-.23,39.87-.22,89.07-.22S333.82,264.72,333.82,264.84Z" style="fill: rgb(224, 224, 224); transform-origin: 244.755px 264.845px;" id="el0q6vvup4w3d" class="animable"></path><path d="M333.82,273.62c0,.12-39.88.22-89.06.22s-89.07-.1-89.07-.22,39.87-.23,89.07-.23S333.82,273.49,333.82,273.62Z" style="fill: rgb(224, 224, 224); transform-origin: 244.755px 273.615px;" id="elyi5me0avfk" class="animable"></path><rect x="155.68" y="208.12" width="177.75" height="5.02" style="fill: rgb(255, 255, 255); transform-origin: 244.555px 210.63px;" id="elwc30zp34d7s" class="animable"></rect><rect x="234.45" y="247.59" width="20.91" height="51.36" style="fill: rgb(224, 224, 224); transform-origin: 244.905px 273.27px;" id="elb0kajj7qsg5" class="animable"></rect><rect x="155.68" y="281.9" width="58.09" height="4.56" style="fill: rgb(255, 255, 255); transform-origin: 184.725px 284.18px;" id="elsm0i9ycfj" class="animable"></rect><path d="M159,298.19a37.06,37.06,0,0,1-.23-5.86,37.06,37.06,0,0,1,.23-5.86,78.15,78.15,0,0,1,0,11.72Z" style="fill: rgb(255, 255, 255); transform-origin: 158.98px 292.33px;" id="elkdkmwgru5v" class="animable"></path><path d="M162.1,298.19a78.15,78.15,0,0,1,0-11.72,37.06,37.06,0,0,1,.23,5.86A37.06,37.06,0,0,1,162.1,298.19Z" style="fill: rgb(255, 255, 255); transform-origin: 162.12px 292.33px;" id="eln99dg2kydpp" class="animable"></path><path d="M165.22,298.19a78.15,78.15,0,0,1,0-11.72,78.15,78.15,0,0,1,0,11.72Z" style="fill: rgb(255, 255, 255); transform-origin: 165.22px 292.33px;" id="elwltbd186vwl" class="animable"></path><path d="M168.34,298.19a37.06,37.06,0,0,1-.23-5.86,37.06,37.06,0,0,1,.23-5.86,78.15,78.15,0,0,1,0,11.72Z" style="fill: rgb(255, 255, 255); transform-origin: 168.32px 292.33px;" id="el74ldran4g4h" class="animable"></path><path d="M171.45,298.19a78.15,78.15,0,0,1,0-11.72,37.06,37.06,0,0,1,.23,5.86A37.06,37.06,0,0,1,171.45,298.19Z" style="fill: rgb(255, 255, 255); transform-origin: 171.47px 292.33px;" id="el0dnzcetscegl" class="animable"></path><path d="M174.57,298.19a37.06,37.06,0,0,1-.23-5.86,37.06,37.06,0,0,1,.23-5.86,78.15,78.15,0,0,1,0,11.72Z" style="fill: rgb(255, 255, 255); transform-origin: 174.55px 292.33px;" id="elfdimd4qx3j" class="animable"></path><path d="M177.68,298.19a78.15,78.15,0,0,1,0-11.72,37.06,37.06,0,0,1,.23,5.86A37.06,37.06,0,0,1,177.68,298.19Z" style="fill: rgb(255, 255, 255); transform-origin: 177.7px 292.33px;" id="el2isxffi3w9i" class="animable"></path><path d="M180.8,298.19a78.15,78.15,0,0,1,0-11.72,78.15,78.15,0,0,1,0,11.72Z" style="fill: rgb(255, 255, 255); transform-origin: 180.8px 292.33px;" id="elnbfi6tnga1i" class="animable"></path><path d="M183.92,298.19a37.06,37.06,0,0,1-.23-5.86,37.06,37.06,0,0,1,.23-5.86,78.15,78.15,0,0,1,0,11.72Z" style="fill: rgb(255, 255, 255); transform-origin: 183.9px 292.33px;" id="el6l329wg419k" class="animable"></path><path d="M187,298.19a78.15,78.15,0,0,1,0-11.72,37.06,37.06,0,0,1,.23,5.86A37.06,37.06,0,0,1,187,298.19Z" style="fill: rgb(255, 255, 255); transform-origin: 187.02px 292.33px;" id="elfsxqmlzthh" class="animable"></path><path d="M190.15,298.19a37.06,37.06,0,0,1-.23-5.86,37.06,37.06,0,0,1,.23-5.86,78.15,78.15,0,0,1,0,11.72Z" style="fill: rgb(255, 255, 255); transform-origin: 190.13px 292.33px;" id="el5zylrmjgdxf" class="animable"></path><path d="M193.26,298.19a78.15,78.15,0,0,1,0-11.72,37.06,37.06,0,0,1,.23,5.86A37.06,37.06,0,0,1,193.26,298.19Z" style="fill: rgb(255, 255, 255); transform-origin: 193.28px 292.33px;" id="elzc71xiptvxk" class="animable"></path><path d="M196.38,298.19a78.15,78.15,0,0,1,0-11.72,78.15,78.15,0,0,1,0,11.72Z" style="fill: rgb(255, 255, 255); transform-origin: 196.38px 292.33px;" id="elst3wzshdvz" class="animable"></path><path d="M199.5,298.19a37.06,37.06,0,0,1-.23-5.86,37.06,37.06,0,0,1,.23-5.86,78.15,78.15,0,0,1,0,11.72Z" style="fill: rgb(255, 255, 255); transform-origin: 199.48px 292.33px;" id="elnringjppfxb" class="animable"></path><path d="M202.61,298.19a78.15,78.15,0,0,1,0-11.72,37.06,37.06,0,0,1,.23,5.86A37.06,37.06,0,0,1,202.61,298.19Z" style="fill: rgb(255, 255, 255); transform-origin: 202.63px 292.33px;" id="elbqiifzs46s8" class="animable"></path><path d="M206.12,298.19a78.15,78.15,0,0,1,0-11.72,37.06,37.06,0,0,1,.23,5.86A37.06,37.06,0,0,1,206.12,298.19Z" style="fill: rgb(255, 255, 255); transform-origin: 206.14px 292.33px;" id="eldfzxsvpmoif" class="animable"></path><path d="M209.63,298.19a78.15,78.15,0,0,1,0-11.72,37.06,37.06,0,0,1,.23,5.86A37.06,37.06,0,0,1,209.63,298.19Z" style="fill: rgb(255, 255, 255); transform-origin: 209.65px 292.33px;" id="elasjveobgg1d" class="animable"></path><rect x="277.59" y="281.9" width="56.24" height="4.56" style="fill: rgb(255, 255, 255); transform-origin: 305.71px 284.18px;" id="elryuubg69y5h" class="animable"></rect><path d="M290.73,299.05a44.37,44.37,0,0,1-.22-6.22,44.58,44.58,0,0,1,.22-6.23,41.91,41.91,0,0,1,.23,6.23A41.71,41.71,0,0,1,290.73,299.05Z" style="fill: rgb(255, 255, 255); transform-origin: 290.736px 292.825px;" id="elvj7r9cgahe" class="animable"></path><path d="M287.34,299a44.37,44.37,0,0,1-.22-6.22,44.58,44.58,0,0,1,.22-6.23,41.91,41.91,0,0,1,.23,6.23A41.71,41.71,0,0,1,287.34,299Z" style="fill: rgb(255, 255, 255); transform-origin: 287.346px 292.775px;" id="elsiww1wxx6ak" class="animable"></path><path d="M284,298.92a44.58,44.58,0,0,1-.22-6.23,44.37,44.37,0,0,1,.22-6.22,41.71,41.71,0,0,1,.23,6.22A41.91,41.91,0,0,1,284,298.92Z" style="fill: rgb(255, 255, 255); transform-origin: 284.006px 292.695px;" id="elsylpkzn4tw" class="animable"></path><path d="M280.32,298.92a44.58,44.58,0,0,1-.22-6.23,44.37,44.37,0,0,1,.22-6.22,44.37,44.37,0,0,1,.22,6.22A44.58,44.58,0,0,1,280.32,298.92Z" style="fill: rgb(255, 255, 255); transform-origin: 280.32px 292.695px;" id="el4dkeje7fooy" class="animable"></path><path d="M293.85,299.05a41.71,41.71,0,0,1-.23-6.22,41.91,41.91,0,0,1,.23-6.23,44.58,44.58,0,0,1,.22,6.23A44.37,44.37,0,0,1,293.85,299.05Z" style="fill: rgb(255, 255, 255); transform-origin: 293.844px 292.825px;" id="eldeeduirka19" class="animable"></path><path d="M297,299.05a44.37,44.37,0,0,1-.22-6.22,44.58,44.58,0,0,1,.22-6.23,41.91,41.91,0,0,1,.23,6.23A41.71,41.71,0,0,1,297,299.05Z" style="fill: rgb(255, 255, 255); transform-origin: 297.006px 292.825px;" id="elt8q7bbi7xkr" class="animable"></path><path d="M300.08,299.05a44.37,44.37,0,0,1-.22-6.22,44.58,44.58,0,0,1,.22-6.23,44.58,44.58,0,0,1,.22,6.23A44.37,44.37,0,0,1,300.08,299.05Z" style="fill: rgb(255, 255, 255); transform-origin: 300.08px 292.825px;" id="elzgn2l4u6f8r" class="animable"></path><path d="M303.2,299.05a41.71,41.71,0,0,1-.23-6.22,41.91,41.91,0,0,1,.23-6.23,44.58,44.58,0,0,1,.22,6.23A44.37,44.37,0,0,1,303.2,299.05Z" style="fill: rgb(255, 255, 255); transform-origin: 303.194px 292.825px;" id="elgtmpirjkkae" class="animable"></path><path d="M306.31,299.05a44.37,44.37,0,0,1-.22-6.22,44.58,44.58,0,0,1,.22-6.23,41.91,41.91,0,0,1,.23,6.23A41.71,41.71,0,0,1,306.31,299.05Z" style="fill: rgb(255, 255, 255); transform-origin: 306.316px 292.825px;" id="elpecr6q9dkp" class="animable"></path><path d="M309.43,299.05a41.71,41.71,0,0,1-.23-6.22,41.91,41.91,0,0,1,.23-6.23,44.58,44.58,0,0,1,.22,6.23A44.37,44.37,0,0,1,309.43,299.05Z" style="fill: rgb(255, 255, 255); transform-origin: 309.424px 292.825px;" id="eltjdd68r4hdj" class="animable"></path><path d="M312.54,299.05a44.37,44.37,0,0,1-.22-6.22,44.58,44.58,0,0,1,.22-6.23,41.91,41.91,0,0,1,.23,6.23A41.71,41.71,0,0,1,312.54,299.05Z" style="fill: rgb(255, 255, 255); transform-origin: 312.546px 292.825px;" id="elxk9p9no355t" class="animable"></path><path d="M315.66,299.05a44.37,44.37,0,0,1-.22-6.22,44.58,44.58,0,0,1,.22-6.23,44.58,44.58,0,0,1,.22,6.23A44.37,44.37,0,0,1,315.66,299.05Z" style="fill: rgb(255, 255, 255); transform-origin: 315.66px 292.825px;" id="el021f10wi1fi" class="animable"></path><path d="M318.78,299.05a41.71,41.71,0,0,1-.23-6.22,41.91,41.91,0,0,1,.23-6.23,44.58,44.58,0,0,1,.22,6.23A44.37,44.37,0,0,1,318.78,299.05Z" style="fill: rgb(255, 255, 255); transform-origin: 318.774px 292.825px;" id="ell265xpt74sc" class="animable"></path><path d="M321.89,299.05a44.37,44.37,0,0,1-.22-6.22,44.58,44.58,0,0,1,.22-6.23,41.91,41.91,0,0,1,.23,6.23A41.71,41.71,0,0,1,321.89,299.05Z" style="fill: rgb(255, 255, 255); transform-origin: 321.896px 292.825px;" id="elbo1sydlpdl" class="animable"></path><path d="M325,299.05a41.71,41.71,0,0,1-.23-6.22,41.91,41.91,0,0,1,.23-6.23,44.58,44.58,0,0,1,.22,6.23A44.37,44.37,0,0,1,325,299.05Z" style="fill: rgb(255, 255, 255); transform-origin: 324.994px 292.825px;" id="els0en7t3byr" class="animable"></path><path d="M328.12,299.05a44.37,44.37,0,0,1-.22-6.22,44.58,44.58,0,0,1,.22-6.23,41.91,41.91,0,0,1,.23,6.23A41.71,41.71,0,0,1,328.12,299.05Z" style="fill: rgb(255, 255, 255); transform-origin: 328.126px 292.825px;" id="elkt5f24zze3s" class="animable"></path><path d="M331.24,299.05a44.37,44.37,0,0,1-.22-6.22,44.58,44.58,0,0,1,.22-6.23,44.58,44.58,0,0,1,.22,6.23A44.37,44.37,0,0,1,331.24,299.05Z" style="fill: rgb(255, 255, 255); transform-origin: 331.24px 292.825px;" id="eljw5wt2q7g1d" class="animable"></path><rect x="168.95" y="254.64" width="17.47" height="12.4" style="fill: rgb(255, 255, 255); transform-origin: 177.685px 260.84px;" id="elu1dk1cltyu" class="animable"></rect><rect x="171.45" y="257.12" width="12.46" height="7.44" style="fill: rgb(224, 224, 224); transform-origin: 177.68px 260.84px;" id="elxlbf19y3ams" class="animable"></rect><rect x="306.95" y="254.64" width="17.47" height="12.4" style="fill: rgb(255, 255, 255); transform-origin: 315.685px 260.84px;" id="elmtv0jd36b3f" class="animable"></rect><rect x="309.45" y="257.12" width="12.46" height="7.44" style="fill: rgb(224, 224, 224); transform-origin: 315.68px 260.84px;" id="el7mi6lxo9d59" class="animable"></rect><rect x="213.77" y="246.39" width="31.68" height="52.62" style="fill: rgb(255, 255, 255); transform-origin: 229.61px 272.7px;" id="elsjg1x5czm89" class="animable"></rect><path d="M217,250c0,.27.35,42.75.35,42.75L228,271.38Z" style="fill: rgb(224, 224, 224); transform-origin: 222.5px 271.375px;" id="el3ptlzq4cxi" class="animable"></path><path d="M242.71,250c0,.27-.36,42.75-.36,42.75l-10.57-21.37Z" style="fill: rgb(224, 224, 224); transform-origin: 237.245px 271.375px;" id="eljej3bxm3orq" class="animable"></path><polygon points="219.37 246.39 230.03 267.75 241.05 246.39 219.37 246.39" style="fill: rgb(224, 224, 224); transform-origin: 230.21px 257.07px;" id="elu149r8iy3c" class="animable"></polygon><polygon points="240.45 296.42 229.79 275.83 219.37 296.42 240.45 296.42" style="fill: rgb(224, 224, 224); transform-origin: 229.91px 286.125px;" id="elyvq6uzyban" class="animable"></polygon><path d="M213.77,299.61c-.13,0-.23-11.83-.23-26.42s.1-26.43.23-26.43.22,11.83.22,26.43S213.89,299.61,213.77,299.61Z" style="fill: rgb(224, 224, 224); transform-origin: 213.765px 273.185px;" id="el5yuk994y8qj" class="animable"></path><path d="M333.82,200.54c0,.13-39.88.23-89.06.23s-89.07-.1-89.07-.23,39.87-.22,89.07-.22S333.82,200.42,333.82,200.54Z" style="fill: rgb(224, 224, 224); transform-origin: 244.755px 200.545px;" id="eln7xtlyaqtz9" class="animable"></path><path d="M333.82,190.81c0,.12-39.88.22-89.06.22s-89.07-.1-89.07-.22,39.87-.23,89.07-.23S333.82,190.69,333.82,190.81Z" style="fill: rgb(224, 224, 224); transform-origin: 244.755px 190.805px;" id="eld91v30ei498" class="animable"></path><path d="M333.82,181.07c0,.13-39.88.23-89.06.23s-89.07-.1-89.07-.23,39.87-.22,89.07-.22S333.82,181,333.82,181.07Z" style="fill: rgb(224, 224, 224); transform-origin: 244.755px 181.075px;" id="elm531ln0w6m" class="animable"></path><path d="M329.77,171.34c0,.12-38.22.22-85.37.22s-85.38-.1-85.38-.22,38.22-.22,85.38-.22S329.77,171.22,329.77,171.34Z" style="fill: rgb(224, 224, 224); transform-origin: 244.395px 171.34px;" id="el6hpsey8whnx" class="animable"></path><path d="M321.91,161.6c0,.13-34.36.23-76.74.23s-76.75-.1-76.75-.23,34.35-.22,76.75-.22S321.91,161.48,321.91,161.6Z" style="fill: rgb(224, 224, 224); transform-origin: 245.165px 161.605px;" id="elxsc60alg1v" class="animable"></path><path d="M318.76,151.87c0,.12-33.66.22-75.17.22s-75.17-.1-75.17-.22,33.65-.22,75.17-.22S318.76,151.75,318.76,151.87Z" style="fill: rgb(224, 224, 224); transform-origin: 243.59px 151.87px;" id="elgecxvmvohie" class="animable"></path><path d="M310.11,142.14c0,.12-30.27.22-67.61.22s-67.61-.1-67.61-.22,30.26-.23,67.61-.23S310.11,142,310.11,142.14Z" style="fill: rgb(224, 224, 224); transform-origin: 242.5px 142.135px;" id="el5mtwf1zwi6y" class="animable"></path><path d="M307.71,132.4c0,.12-28.86.23-64.45.23s-64.47-.11-64.47-.23,28.86-.22,64.47-.22S307.71,132.28,307.71,132.4Z" style="fill: rgb(224, 224, 224); transform-origin: 243.25px 132.405px;" id="elvr6ndg16bxb" class="animable"></path><path d="M292.25,122.67c0,.12-21.8.22-48.69.22s-48.7-.1-48.7-.22,21.8-.23,48.7-.23S292.25,122.54,292.25,122.67Z" style="fill: rgb(224, 224, 224); transform-origin: 243.555px 122.665px;" id="el0cnwvc5hp10u" class="animable"></path><path d="M273.22,112.93a3.44,3.44,0,0,1-.66,0l-1.9,0-7,.07-23,.07-23-.07-7-.07-1.9,0a3.44,3.44,0,0,1-.66,0,4.28,4.28,0,0,1,.66,0l1.9,0,7-.07,23-.06,23,.06,7,.07,1.9,0A4.28,4.28,0,0,1,273.22,112.93Z" style="fill: rgb(224, 224, 224); transform-origin: 240.66px 112.935px;" id="elixwv91jtbr9" class="animable"></path><path d="M258,103.2c0,.12-7,.22-15.55.22s-15.54-.1-15.54-.22,7-.23,15.54-.23S258,103.07,258,103.2Z" style="fill: rgb(224, 224, 224); transform-origin: 242.455px 103.195px;" id="elhabro6y819" class="animable"></path><polygon points="339.39 185.11 304.5 127.06 240.54 92.71 179.91 129.03 149.71 186.28 154.88 188.34 154.88 187.19 184.81 131.54 240.46 98.41 301.62 130.69 332.63 184.64 332.63 185.79 339.39 185.11" style="fill: rgb(245, 245, 245); transform-origin: 244.55px 140.525px;" id="el5g7kdkakkb2" class="animable"></polygon><path d="M339.39,185.11l-6.75.73h-.05v-.06c0-.34,0-.74,0-1.15v0l-31.09-53.9.05.06L240.36,98.58h.19l-55.63,33.15.08-.08L155.08,187.3l0-.11v1.48l-.31-.12-5.17-2.06-.23-.1.12-.22c.12-.23.26-.49.39-.75l29.81-56.49,0-.06.06,0,60.64-36.3.1-.06.09.06,63.94,34.39,0,0,0,0,34.76,58.13-35-58,.05,0-64-34.31h.19L180,129.22l.08-.09-29.79,56.5c-.14.26-.27.52-.4.75l-.11-.31,5.17,2.07-.31.2v-1.2l0,0,29.94-55.65,0-.05,0,0,55.66-33.12.09,0,.1,0,61.14,32.32,0,0,0,0,30.93,54h0c0,.41,0,.81,0,1.15l-.05,0Z" style="fill: rgb(224, 224, 224); transform-origin: 244.38px 140.59px;" id="elhxty9bifkhi" class="animable"></path><rect x="228.7" y="180.83" width="28.69" height="4.92" style="fill: rgb(235, 235, 235); transform-origin: 243.045px 183.29px;" id="elrh4lygb0brc" class="animable"></rect><rect x="231.21" y="138.32" width="23.7" height="44.96" style="fill: rgb(235, 235, 235); transform-origin: 243.06px 160.8px;" id="elgy46ksm3spc" class="animable"></rect><rect x="233.52" y="140.53" width="19.07" height="40.35" style="fill: rgb(255, 255, 255); transform-origin: 243.055px 160.705px;" id="elzfxkq19abcj" class="animable"></rect><path d="M252.59,180.71a1.7,1.7,0,0,1-.32,0l-1,0-3.79,0-14.07.09h-.16v-.17c0-10.42,0-24.48-.06-39.91l.23-.23h19.37v.22c-.05,11.65-.08,21.64-.11,28.75,0,3.51,0,6.3,0,8.25,0,.93,0,1.66,0,2.18,0,.23,0,.41,0,.55s0,.19,0,.18a1.57,1.57,0,0,1,0-.2c0-.15,0-.34,0-.58,0-.54,0-1.28,0-2.23,0-2,0-4.76-.06-8.29,0-7.08-.06-17-.1-28.61l.21.21H233.44c-.06,0,.42-.42.22-.22,0,15.43,0,29.49-.06,39.91l-.17-.16,14,.09,3.83,0,1,0Z" style="fill: rgb(224, 224, 224); transform-origin: 242.99px 160.645px;" id="elkagg58zf5z" class="animable"></path><rect x="231.21" y="159.45" width="23.7" height="2.18" style="fill: rgb(224, 224, 224); transform-origin: 243.06px 160.54px;" id="elz451joef678" class="animable"></rect><path d="M254.91,161.64a3.8,3.8,0,0,1,0-.59c0-.41,0-.94-.05-1.6l.09.09c-4,.08-13.09.14-23.7.14h0c-.05,0,.42-.43.22-.22h0v2.17l-.22-.23c6.6,0,12.48.05,16.75.1l5.06.07,1.38,0,.51,0a2.42,2.42,0,0,1-.45,0l-1.33,0-5,.07c-4.25,0-10.22.09-16.91.09H231v-2.39h0l.23-.23h0c10.61,0,19.72.06,23.7.14H255v.08c0,.68,0,1.23-.05,1.65A3.91,3.91,0,0,1,254.91,161.64Z" style="fill: rgb(224, 224, 224); transform-origin: 243px 160.42px;" id="el52604whf9yt" class="animable"></path><path d="M256.59,180.83c0,.12-6.28.22-14,.22s-14-.1-14-.22,6.28-.23,14-.23S256.59,180.7,256.59,180.83Z" style="fill: rgb(224, 224, 224); transform-origin: 242.59px 180.825px;" id="el9hkae561apt" class="animable"></path><g id="elgx5lft693i"><rect x="245.9" y="246.42" width="31.68" height="52.62" style="fill: rgb(255, 255, 255); transform-origin: 261.74px 272.73px; transform: rotate(180deg);" class="animable" id="elg1ct18usmyb"></rect></g><path d="M274.32,250c0,.27-.36,42.75-.36,42.75l-10.58-21.38Z" style="fill: rgb(224, 224, 224); transform-origin: 268.85px 271.375px;" id="el6fi9th7a5ua" class="animable"></path><path d="M248.64,250c0,.27.36,42.75.36,42.75l10.57-21.38Z" style="fill: rgb(224, 224, 224); transform-origin: 254.105px 271.375px;" id="eldaohb4kionq" class="animable"></path><polygon points="271.99 246.42 261.32 267.78 250.3 246.42 271.99 246.42" style="fill: rgb(224, 224, 224); transform-origin: 261.145px 257.1px;" id="elzc62gz56i8" class="animable"></polygon><polygon points="250.9 296.46 261.56 275.86 271.99 296.46 250.9 296.46" style="fill: rgb(224, 224, 224); transform-origin: 261.445px 286.16px;" id="elcrotc8uncmb" class="animable"></polygon><path d="M277.66,299c-.12,0-.22-11.78-.22-26.3s.1-26.3.22-26.3.22,11.77.22,26.3S277.78,299,277.66,299Z" style="fill: rgb(224, 224, 224); transform-origin: 277.66px 272.7px;" id="eluny1yrkanl" class="animable"></path><path d="M155.68,298.19c-.13,0-.23-25.15-.23-56.17s.1-56.17.23-56.17.22,25.14.22,56.17S155.8,298.19,155.68,298.19Z" style="fill: rgb(224, 224, 224); transform-origin: 155.675px 242.02px;" id="eluwy0w7fy90d" class="animable"></path><path d="M333.72,298.19c-.12,0-.22-25.23-.22-56.34s.1-56.35.22-56.35.22,25.22.22,56.35S333.84,298.19,333.72,298.19Z" style="fill: rgb(224, 224, 224); transform-origin: 333.72px 241.845px;" id="ellxpxvl89ep" class="animable"></path><path d="M419.57,247.56c0,.12-19.38.22-43.28.22s-43.3-.1-43.3-.22,19.38-.22,43.3-.22S419.57,247.44,419.57,247.56Z" style="fill: rgb(224, 224, 224); transform-origin: 376.28px 247.56px;" id="eliq8ewf1t8l" class="animable"></path><path d="M419.57,256.07c0,.12-19.38.22-43.28.22s-43.3-.1-43.3-.22,19.38-.23,43.3-.23S419.57,255.94,419.57,256.07Z" style="fill: rgb(224, 224, 224); transform-origin: 376.28px 256.065px;" id="ellbf89rm72pg" class="animable"></path><path d="M419.57,264.84c0,.13-19.16.23-42.79.23s-42.8-.1-42.8-.23,19.16-.22,42.8-.22S419.57,264.72,419.57,264.84Z" style="fill: rgb(224, 224, 224); transform-origin: 376.775px 264.845px;" id="el7n8hjr6vew" class="animable"></path><path d="M419.57,273.62c0,.12-19.19.22-42.87.22s-42.88-.1-42.88-.22,19.2-.23,42.88-.23S419.57,273.49,419.57,273.62Z" style="fill: rgb(224, 224, 224); transform-origin: 376.695px 273.615px;" id="el1l470sl6cn6" class="animable"></path><path d="M419.57,281.59c0,.12-19.22.22-42.92.22s-42.93-.1-42.93-.22,19.22-.23,42.93-.23S419.57,281.46,419.57,281.59Z" style="fill: rgb(224, 224, 224); transform-origin: 376.645px 281.585px;" id="elres9m12assl" class="animable"></path><path d="M419.57,290.09c0,.13-19.19.23-42.87.23s-42.88-.1-42.88-.23,19.2-.22,42.88-.22S419.57,290,419.57,290.09Z" style="fill: rgb(224, 224, 224); transform-origin: 376.695px 290.095px;" id="eln81qrdmdmd" class="animable"></path><rect x="198.87" y="241.32" width="94.14" height="5.41" style="fill: rgb(255, 255, 255); transform-origin: 245.94px 244.025px;" id="el4hcg4y7wrj8" class="animable"></rect><path d="M293.19,246.73c0,.12-21.09.22-47.08.22s-47.09-.1-47.09-.22,21.08-.23,47.09-.23S293.19,246.6,293.19,246.73Z" style="fill: rgb(224, 224, 224); transform-origin: 246.105px 246.725px;" id="ellnsvonhzmrb" class="animable"></path><rect x="21.1" y="274.69" width="456.69" height="5.27" style="fill: rgb(224, 224, 224); transform-origin: 249.445px 277.325px;" id="elub6sop24stm" class="animable"></rect><rect x="21.1" y="293.51" width="456.69" height="5.27" style="fill: rgb(224, 224, 224); transform-origin: 249.445px 296.145px;" id="elidftemukjuq" class="animable"></rect><rect x="43.74" y="270.8" width="6.99" height="65.47" style="fill: rgb(224, 224, 224); transform-origin: 47.235px 303.535px;" id="el4zdtwiqp1l4" class="animable"></rect><rect x="136.67" y="270.8" width="6.99" height="65.47" style="fill: rgb(224, 224, 224); transform-origin: 140.165px 303.535px;" id="ellgvj6gmj4fa" class="animable"></rect><rect x="236.48" y="270.8" width="6.99" height="65.47" style="fill: rgb(224, 224, 224); transform-origin: 239.975px 303.535px;" id="ele9gdazneuo" class="animable"></rect><rect x="336.28" y="270.8" width="6.99" height="65.47" style="fill: rgb(224, 224, 224); transform-origin: 339.775px 303.535px;" id="elet4dzu4vf0l" class="animable"></rect><rect x="436.08" y="270.8" width="6.99" height="65.47" style="fill: rgb(224, 224, 224); transform-origin: 439.575px 303.535px;" id="elee2t67o810u" class="animable"></rect></g><g id="freepik--Floor--inject-139" class="animable" style="transform-origin: 250.88px 411.73px;"><path d="M469.88,411.73c0,.14-98.06.26-219,.26s-219-.12-219-.26,98-.26,219-.26S469.88,411.59,469.88,411.73Z" style="fill: rgb(38, 50, 56); transform-origin: 250.88px 411.73px;" id="elzhr449cqmz" class="animable"></path></g><g id="freepik--Plants--inject-139" class="animable" style="transform-origin: 244.638px 435.249px;"><path d="M172.75,443.3a7,7,0,0,1,3.62,4.1,12.17,12.17,0,0,1,.48,5.56c-.4,3.61-2.46,7.25-4.66,10.14-3-2.66-3.74-7.28-3.95-9.65-.32-3.74,1.36-10.71,4.51-10.15" style="fill: #FF725E; transform-origin: 172.59px 453.184px;" id="elczgj1x2z1dw" class="animable"></path><path d="M175.72,469.05a5.94,5.94,0,0,1,1.93-5.67,7.92,7.92,0,0,1,5.84-1.82,3.29,3.29,0,0,1,2.56,1.15,2.53,2.53,0,0,1,0,2.58,5.1,5.1,0,0,1-1.91,1.89c-2.63,1.65-5.48,2.76-8.46,1.87" style="fill: #FF725E; transform-origin: 181.002px 465.445px;" id="eltj9xb54gbvf" class="animable"></path><path d="M171.82,480.11a5,5,0,0,1,.11-.74c.1-.52.22-1.19.37-2a20.87,20.87,0,0,1,2.07-6.4,12.83,12.83,0,0,1,4.59-4.88,8.28,8.28,0,0,1,1.87-.83,4.86,4.86,0,0,1,.54-.14l.19,0a14.37,14.37,0,0,0-2.5,1.16,13.13,13.13,0,0,0-4.46,4.85,22.33,22.33,0,0,0-2.12,6.31c-.18.84-.33,1.52-.45,2A3,3,0,0,1,171.82,480.11Z" style="fill: rgb(38, 50, 56); transform-origin: 176.69px 472.615px;" id="elaae665b2yso" class="animable"></path><path d="M171.94,448.72a1.34,1.34,0,0,1,0,.32q0,.36.06.93c0,.81.09,2,.14,3.42.09,2.89.16,6.89.15,11.3s-.13,8.41-.25,11.3c-.06,1.45-.12,2.62-.17,3.42,0,.39,0,.69-.06.93a1.68,1.68,0,0,1,0,.33,1.72,1.72,0,0,1,0-.33c0-.24,0-.55,0-.93,0-.84,0-2,.08-3.42.07-2.89.15-6.89.17-11.3s0-8.4-.07-11.29c0-1.42,0-2.59,0-3.43,0-.38,0-.69,0-.93A1.14,1.14,0,0,1,171.94,448.72Z" style="fill: rgb(38, 50, 56); transform-origin: 172.047px 464.695px;" id="elxiyebz8oe8j" class="animable"></path><path d="M170.46,471.25A13.93,13.93,0,0,0,162.84,461c-1-.49-2.34-.81-3.17,0s-.65,2.11-.24,3.16a11.91,11.91,0,0,0,11,7.4" style="fill: #FF725E; transform-origin: 164.772px 466.033px;" id="elmxhjn3n1w4e" class="animable"></path><path d="M163.34,464.45a3.3,3.3,0,0,1,.64.28,6.79,6.79,0,0,1,.73.39c.27.17.6.33.93.58a10.92,10.92,0,0,1,1.06.8c.37.29.74.65,1.13,1a15.86,15.86,0,0,1,2.14,2.76,15.33,15.33,0,0,1,1.42,3.2,13.09,13.09,0,0,1,.35,1.48,9.66,9.66,0,0,1,.18,1.32c.06.4,0,.77.06,1.09a6.88,6.88,0,0,1,0,.83,2.84,2.84,0,0,1-.08.69c-.06,0,0-1-.13-2.59a11.63,11.63,0,0,0-.21-1.3,13.6,13.6,0,0,0-.38-1.45,15.25,15.25,0,0,0-1.4-3.13,16.36,16.36,0,0,0-2.1-2.73c-.37-.37-.73-.73-1.09-1s-.71-.57-1-.81C164.22,464.92,163.31,464.5,163.34,464.45Z" style="fill: rgb(38, 50, 56); transform-origin: 167.666px 471.66px;" id="elkiiq367vrvn" class="animable"></path><path d="M237.12,411.13a30.39,30.39,0,0,0-1.46-7,31.07,31.07,0,0,0-3.5-6.2,6.28,6.28,0,0,1,1.48,1.53,17.25,17.25,0,0,1,3.59,9.5A6.09,6.09,0,0,1,237.12,411.13Z" style="fill: rgb(38, 50, 56); transform-origin: 234.72px 404.53px;" id="el3v40kq8c53z" class="animable"></path><path d="M244.17,389.83c.08,0-.51,1.16-1.23,3.06a31.74,31.74,0,0,0-1.78,15.6c.28,2,.6,3.24.51,3.26a3.3,3.3,0,0,1-.31-.84,17.56,17.56,0,0,1-.56-2.37,27.87,27.87,0,0,1,1.8-15.79,19.14,19.14,0,0,1,1.08-2.18C244,390.07,244.14,389.81,244.17,389.83Z" style="fill: rgb(38, 50, 56); transform-origin: 242.274px 400.789px;" id="el0fnqli21pfel" class="animable"></path><path d="M254.38,398.51c.12.1-2,2.71-4,6.29s-3.24,6.73-3.39,6.68a7.85,7.85,0,0,1,.64-2.12,35.05,35.05,0,0,1,5.28-9.23A7.54,7.54,0,0,1,254.38,398.51Z" style="fill: rgb(38, 50, 56); transform-origin: 250.687px 404.995px;" id="el82g2zablmah" class="animable"></path><path d="M442.84,475.51a18.9,18.9,0,0,1-.58-2.59,48.45,48.45,0,0,0-1.69-6.13,50.66,50.66,0,0,0-2.48-5.86,18.65,18.65,0,0,1-1.16-2.39,10.78,10.78,0,0,1,1.48,2.21,36.14,36.14,0,0,1,4.22,12.1A11,11,0,0,1,442.84,475.51Z" style="fill: rgb(38, 50, 56); transform-origin: 439.89px 467.025px;" id="elocxw62hpku9" class="animable"></path><path d="M447.86,472.8a19.55,19.55,0,0,1-.94-3.26c-.49-2-1.09-4.87-1.61-8s-.86-6-1.05-8.12a19.19,19.19,0,0,1-.15-3.39,26.62,26.62,0,0,1,.52,3.35c.28,2.07.67,4.93,1.19,8.08s1.06,6,1.46,8A26.12,26.12,0,0,1,447.86,472.8Z" style="fill: rgb(38, 50, 56); transform-origin: 445.976px 461.415px;" id="elycsbx6mdaqq" class="animable"></path><path d="M457,458.12c.07.05-.6.91-1.51,2.41a29.39,29.39,0,0,0-4.25,12.83c-.16,1.74-.14,2.83-.23,2.83a2.37,2.37,0,0,1-.11-.76,16.82,16.82,0,0,1,0-2.1,25.07,25.07,0,0,1,4.31-13,17.44,17.44,0,0,1,1.27-1.67C456.79,458.29,457,458.09,457,458.12Z" style="fill: rgb(38, 50, 56); transform-origin: 453.936px 467.154px;" id="el6g3td7qa53v" class="animable"></path><path d="M314.12,454a21.46,21.46,0,0,1-.65-2.63,34.35,34.35,0,0,0-5.3-11.81,23.87,23.87,0,0,1-1.54-2.23,10.42,10.42,0,0,1,1.84,2,28.32,28.32,0,0,1,5.36,11.95A10.2,10.2,0,0,1,314.12,454Z" style="fill: rgb(38, 50, 56); transform-origin: 310.377px 445.665px;" id="elunlgpctm1to" class="animable"></path><path d="M316.9,453.28c-.14,0-.93-4.83-1.77-10.83s-1.41-10.88-1.26-10.9.93,4.83,1.77,10.83S317.05,453.26,316.9,453.28Z" style="fill: rgb(38, 50, 56); transform-origin: 315.385px 442.415px;" id="elqd9it4eeh8e" class="animable"></path><path d="M325.05,438.7a18.87,18.87,0,0,1-1.32,2.21,34,34,0,0,0-2.65,5.56,32.85,32.85,0,0,0-1.55,6,22.71,22.71,0,0,1-.42,2.55,9.36,9.36,0,0,1,.05-2.59,26.35,26.35,0,0,1,4.26-11.69A9.38,9.38,0,0,1,325.05,438.7Z" style="fill: rgb(38, 50, 56); transform-origin: 322.047px 446.86px;" id="elr730ok09oh" class="animable"></path><path d="M40.86,470.9a27.13,27.13,0,0,1-.78-2.89,41.88,41.88,0,0,0-2.46-6.74A41.24,41.24,0,0,0,34,455.08a27.39,27.39,0,0,1-1.73-2.44s.24.17.59.54a19.66,19.66,0,0,1,1.43,1.68,32.66,32.66,0,0,1,3.79,6.19,32.92,32.92,0,0,1,2.35,6.87c.2.91.32,1.65.38,2.17A2.65,2.65,0,0,1,40.86,470.9Z" style="fill: rgb(38, 50, 56); transform-origin: 36.5706px 461.77px;" id="elckjyxu1iija" class="animable"></path><path d="M45.36,469.86a23.05,23.05,0,0,1-.59-3.13c-.34-1.94-.85-4.6-1.57-7.51s-1.51-5.5-2.11-7.37a24.83,24.83,0,0,1-.94-3.05,15.71,15.71,0,0,1,1.28,2.93,67.64,67.64,0,0,1,2.28,7.37,66.57,66.57,0,0,1,1.42,7.58A15.87,15.87,0,0,1,45.36,469.86Z" style="fill: rgb(38, 50, 56); transform-origin: 42.7582px 459.33px;" id="elizyx7arsl1" class="animable"></path><path d="M55.21,452.16a28,28,0,0,1-1.38,2.68,42.15,42.15,0,0,0-4.32,13.74,26.25,26.25,0,0,1-.41,3,3,3,0,0,1-.06-.82c0-.52,0-1.28.1-2.21a34.89,34.89,0,0,1,1.44-7.17,34.49,34.49,0,0,1,2.93-6.7c.47-.82.88-1.45,1.18-1.88S55.18,452.14,55.21,452.16Z" style="fill: rgb(38, 50, 56); transform-origin: 52.1219px 461.869px;" id="ely6j6c8ox8nh" class="animable"></path></g><g id="freepik--Truck--inject-139" class="animable animator-active" style="transform-origin: 247.156px 318.276px;"><rect x="363.83" y="331.71" width="100.89" height="35.76" style="fill: #FF725E; transform-origin: 414.275px 349.59px;" id="elnzcjr6fko7f" class="animable"></rect><path d="M464.75,367.5H363.81V331.69H464.75Zm-100.89-.05H464.7V331.74H363.86Z" style="fill: rgb(38, 50, 56); transform-origin: 414.28px 349.595px;" id="el1uh419gj5jl" class="animable"></path><g id="elsdhm85a3kvs" class=""><g style="opacity: 0.3; transform-origin: 414.275px 349.59px;" class="animable" id="el91apwupikyh"><rect x="363.83" y="331.71" width="100.89" height="35.76" id="eln442758gwc" class="animable" style="transform-origin: 414.275px 349.59px;"></rect></g></g><rect x="464.34" y="344.72" width="11.53" height="22.75" rx="2.51" style="fill: rgb(224, 224, 224); transform-origin: 470.105px 356.095px;" id="elc7yjjpyx38" class="animable"></rect><path d="M473.36,367.47s.23,0,.63-.14a2.45,2.45,0,0,0,1.4-1.08,2.28,2.28,0,0,0,.35-1.23c0-.49,0-1,0-1.6,0-1.17,0-2.48,0-3.93,0-2.92,0-6.38-.06-10.21v-1.46a3.64,3.64,0,0,0-.15-1.38,2.27,2.27,0,0,0-2.15-1.47h-6.48a2.25,2.25,0,0,0-2.17,1.66,6.38,6.38,0,0,0-.08,1.54c0,.53,0,1.05,0,1.58,0,2.09,0,4.11,0,6s0,3.74,0,5.46c0,.85,0,1.68,0,2.47a5.64,5.64,0,0,0,.18,2.18,2.38,2.38,0,0,0,1.37,1.28,6.28,6.28,0,0,0,1.78.15l3,0,1.88.05a3.39,3.39,0,0,1,.65.05,2.59,2.59,0,0,1-.65,0l-1.88.05-3,.05a6,6,0,0,1-1.89-.13,2.7,2.7,0,0,1-1.59-1.44,2.6,2.6,0,0,1-.24-1.16c0-.38,0-.77,0-1.17,0-.79,0-1.62,0-2.47,0-1.72,0-3.54,0-5.46s0-3.94,0-6v-1.58a6.9,6.9,0,0,1,.1-1.67,2.78,2.78,0,0,1,2.67-2.05h6.48a2.77,2.77,0,0,1,2.61,1.8,4.11,4.11,0,0,1,.18,1.56c0,.5,0,1,0,1.46,0,3.83,0,7.29-.05,10.21,0,1.45,0,2.76,0,3.93,0,.57,0,1.11,0,1.61a2.58,2.58,0,0,1-2,2.41A1.85,1.85,0,0,1,473.36,367.47Z" style="fill: rgb(38, 50, 56); transform-origin: 470.28px 355.937px;" id="elnoj21centzp" class="animable"></path><path d="M230,284.91v-38.3a23.18,23.18,0,0,1,23.18-23.19h57.9s16.14-1.81,22.49,12,21.4,41.72,21.4,41.72,59.81.24,84,9c22.2,8,19.2,24.4,19.2,24.4.87,1.55.07,12,.07,12l-99,15-14.95,22.35H230.67Z" style="fill: #FF725E; transform-origin: 344.288px 291.616px;" id="el3x4z320lghr" class="animable"></path><rect x="456.98" y="307.55" width="7.36" height="44.96" style="fill: rgb(224, 224, 224); transform-origin: 460.66px 330.03px;" id="elsgx91znal1g" class="animable"></rect><path d="M464.34,352.5a1.1,1.1,0,0,1,0-.24c0-.18,0-.4,0-.68,0-.63,0-1.49,0-2.58,0-2.28,0-5.52-.08-9.53,0-8.07-.06-19.26-.11-31.92l.26.25H457l.25-.25h0v7.06q0,3.48,0,6.8c0,4.42,0,8.61,0,12.47,0,7.69-.07,14.11-.1,18.6l-.13-.13,5.42.08,1.43,0,.51,0a2.49,2.49,0,0,1-.46,0l-1.4,0-5.5.08h-.13v-.14c0-4.49-.05-10.91-.09-18.6,0-3.86,0-8,0-12.47q0-3.31,0-6.8v-7.06h0c.12-.12-.26.25.27-.27h7.61v.26c-.05,12.73-.09,24-.12,32.11,0,4-.05,7.2-.07,9.46,0,1.07,0,1.91,0,2.53,0,.26,0,.47,0,.65A1.86,1.86,0,0,1,464.34,352.5Z" style="fill: rgb(38, 50, 56); transform-origin: 460.729px 329.84px;" id="elscd9biwrmlq" class="animable"></path><path d="M381.93,311.1a2.51,2.51,0,0,1-.65,0l-1.84.05-6.8.08-10.08.06h-2.92a11.29,11.29,0,0,1-3.07-.45,10.41,10.41,0,0,1-5.28-3.68,10.22,10.22,0,0,1-2.12-6.08c0-2.06-.05-4.06-.07-6s-.1-3.69.07-5.41a19.76,19.76,0,0,1,1.19-4.58,34.6,34.6,0,0,1,3.12-6.06c.44-.67.79-1.18,1-1.52a2.92,2.92,0,0,1,.41-.5,3,3,0,0,1-.32.56l-1,1.57a39,39,0,0,0-2.95,6.08,19.64,19.64,0,0,0-1.1,4.5c-.15,1.64,0,3.46,0,5.35s.06,3.89.1,6a9.85,9.85,0,0,0,2,5.78,10,10,0,0,0,5,3.51,20.66,20.66,0,0,0,5.84.44l10.08.06,6.8.08,1.84.05A3.26,3.26,0,0,1,381.93,311.1Z" style="fill: rgb(38, 50, 56); transform-origin: 365.497px 294.15px;" id="eltfjex8kjo6t" class="animable"></path><rect x="164.41" y="359.29" width="181.1" height="11.1" style="fill: rgb(38, 50, 56); transform-origin: 254.96px 364.84px;" id="eluwwvbuf1qpb" class="animable"></rect><g id="elb4oyrcc5dq5" class=""><g style="opacity: 0.3; transform-origin: 369.785px 336.817px;" class="animable" id="el9gxgfn1fm6g"><path d="M368,311a68,68,0,0,0-27.57,25.73c-3.05,5.13-5.45,10.78-5.9,16.72s1.24,12.24,5.42,16.49L405.11,304A68,68,0,0,0,368,311Z" id="elo1xp7ol35g" class="animable" style="transform-origin: 369.785px 336.817px;"></path></g></g><path d="M381,352.84a38.46,38.46,0,0,1,8.36-10.31c7.39-6.12,13.92-8.93,23-9.33,8-.36,18.74,1.58,27.14,9,7.05,6.27,11.58,11.84,17.86,18.76a8.26,8.26,0,0,0,1.6,1.41c5,3.29,9.34-1.86,10.84-6.55,3.7-11.56.09-24.75-7.8-34s-19.54-14.73-31.52-16.7a113.73,113.73,0,0,0-39.59,1c-14.77,3.31-22.54,6.19-34.24,17.17-7.83,7.35-21.24,27.06-18.64,42.39,0,0,3.53,12.72,17.32,10.73s17.16-9.07,19.92-13.36C377,360.32,378.8,356.67,381,352.84Z" style="fill: #FF725E; transform-origin: 404.469px 340.234px;" id="elnh78i8huwut" class="animable"></path><path d="M381,352.84l-.49.92-1.47,2.68c-.64,1.19-1.41,2.66-2.38,4.37-.48.86-1,1.77-1.63,2.73s-1.22,2-2,3a25.57,25.57,0,0,1-2.56,3.14,21.94,21.94,0,0,1-3.48,2.82,28.1,28.1,0,0,1-9.42,3.64,25.75,25.75,0,0,1-5.62.58c-.49,0-1,0-1.48-.07l-1.48-.26a8.66,8.66,0,0,1-1.47-.4,7.67,7.67,0,0,1-1.44-.56,16,16,0,0,1-8.33-9.72h0a30.63,30.63,0,0,1,.86-12.73,58.71,58.71,0,0,1,5.18-12.78A77.56,77.56,0,0,1,352,328a49.55,49.55,0,0,1,5.27-5.6c1.89-1.77,3.91-3.46,6-5.08a50.93,50.93,0,0,1,14.29-7.79A117.25,117.25,0,0,1,394,305.26a116.44,116.44,0,0,1,35.47-.49,59.8,59.8,0,0,1,18,5.63,46.94,46.94,0,0,1,14.53,11.16c7.88,9.16,11.21,21.67,8.48,32.52a15.29,15.29,0,0,1-3.7,7.32,7.26,7.26,0,0,1-3.48,2.14,5.63,5.63,0,0,1-4-.62,10.09,10.09,0,0,1-3-2.61l-2.56-2.86c-1.68-1.9-3.34-3.77-5-5.58a121,121,0,0,0-10.09-10,35,35,0,0,0-11.29-6.38,41.71,41.71,0,0,0-22.14-1.27,37,37,0,0,0-15,7.62,34.53,34.53,0,0,0-7.28,7.82c-.7,1-1.2,1.8-1.54,2.33s-.51.81-.51.81a34.71,34.71,0,0,1,2-3.2,34,34,0,0,1,7.25-7.92A37,37,0,0,1,405.29,334a41.92,41.92,0,0,1,22.32,1.2A35.46,35.46,0,0,1,439,341.6a118.84,118.84,0,0,1,10.15,10c1.66,1.81,3.32,3.68,5,5.57l2.56,2.86a9.68,9.68,0,0,0,2.85,2.5,5.11,5.11,0,0,0,3.65.57,6.82,6.82,0,0,0,3.25-2,15.1,15.1,0,0,0,3.57-7.11c2.67-10.68-.62-23-8.41-32.08a46.62,46.62,0,0,0-14.37-11,59.29,59.29,0,0,0-17.87-5.58,115.34,115.34,0,0,0-35.3.49A115.72,115.72,0,0,0,377.78,310a50.66,50.66,0,0,0-14.17,7.7q-3.15,2.42-6,5.05a48.65,48.65,0,0,0-5.23,5.54,76.72,76.72,0,0,0-8.14,12.15,58.26,58.26,0,0,0-5.17,12.67,30.43,30.43,0,0,0-.89,12.57v0a15.73,15.73,0,0,0,8.1,9.51,8.08,8.08,0,0,0,1.41.55,9.19,9.19,0,0,0,1.43.39l1.45.26c.49,0,1,.05,1.45.08a25.87,25.87,0,0,0,5.55-.56,28,28,0,0,0,9.34-3.55,22.06,22.06,0,0,0,3.45-2.78,25.38,25.38,0,0,0,2.56-3.09c.74-1,1.36-2.08,2-3s1.16-1.85,1.65-2.71c1-1.7,1.77-3.17,2.43-4.34s1.16-2.07,1.51-2.66S381,352.84,381,352.84Z" style="fill: rgb(38, 50, 56); transform-origin: 404.43px 340.183px;" id="elxnn09im2htc" class="animable"></path><path d="M367.55,349.48c0,.14-4.86.26-10.85.26s-10.86-.12-10.86-.26,4.86-.26,10.86-.26S367.55,349.33,367.55,349.48Z" style="fill: rgb(38, 50, 56); transform-origin: 356.695px 349.48px;" id="elpm4l3ku9ns" class="animable"></path><path d="M365.69,355.71c0,.15-4.86.26-10.85.26s-10.86-.11-10.86-.26,4.86-.26,10.86-.26S365.69,355.57,365.69,355.71Z" style="fill: rgb(38, 50, 56); transform-origin: 354.835px 355.71px;" id="ellck6dyzol5" class="animable"></path><path d="M363.83,362c0,.15-4.86.26-10.85.26s-10.86-.11-10.86-.26,4.86-.26,10.86-.26S363.83,361.81,363.83,362Z" style="fill: rgb(38, 50, 56); transform-origin: 352.975px 362px;" id="elilj2staumn9" class="animable"></path><path d="M47.05,341.65H76.63c3.22,0,3.22-5,0-5H47.05c-3.22,0-3.23,5,0,5Z" style="fill: #FF725E; transform-origin: 61.8381px 339.15px;" id="elkfj6ngfn5u" class="animable"></path><path d="M44.51,347.89H74.09c3.22,0,3.23-5,0-5H44.51c-3.21,0-3.22,5,0,5Z" style="fill: #FF725E; transform-origin: 59.3037px 345.39px;" id="elso8w8lt9dii" class="animable"></path><path d="M42,354.13H71.56c3.22,0,3.22-5,0-5H42c-3.22,0-3.22,5,0,5Z" style="fill: #FF725E; transform-origin: 56.78px 351.63px;" id="elj2d8nmbu8ug" class="animable"></path><path d="M353.68,303H342.34a3,3,0,0,1-2.95-2.95h0a3,3,0,0,1,2.95-3h11.34a3,3,0,0,1,3,3h0A3,3,0,0,1,353.68,303Z" style="fill: rgb(224, 224, 224); transform-origin: 348.035px 300.025px;" id="elvss43f43qxi" class="animable"></path><path d="M320.84,274.18c-1.53-8.1-6.64-20.77-9.68-25.21s-7.28-5.68-13.19-6.42-32-.06-32-.06c-.59,0-10.54-.5-10.57,13,0,14.41.37,19.45.37,19.45s0,9,9.22,9h47.77a8.23,8.23,0,0,0,8.15-9.58C320.87,274.34,320.85,274.26,320.84,274.18Z" style="fill: rgb(69, 90, 100); transform-origin: 288.211px 263.072px;" id="eludvgw80ep9" class="animable"></path><path d="M320.84,274.18a2.61,2.61,0,0,1,.08.37,7.58,7.58,0,0,1,.11,1.12,8,8,0,0,1-1,4.2,8.4,8.4,0,0,1-5.46,4.07,22.75,22.75,0,0,1-4.35.21l-4.89,0-24.35.06-14.59,0c-.64,0-1.27,0-1.93,0l-1-.06c-.32,0-.65-.12-1-.18a10.13,10.13,0,0,1-1.92-.59,9,9,0,0,1-1.72-1.08,9.91,9.91,0,0,1-3.35-7.33v0c-.34-5.82-.36-11.85-.37-18,0-3.25.19-6.65,1.75-9.56a9.57,9.57,0,0,1,3.23-3.57,10.11,10.11,0,0,1,4.48-1.56c6.21-.23,12.14-.28,17.82-.33,2.84,0,5.6,0,8.29,0a73.79,73.79,0,0,1,7.83.4,26.91,26.91,0,0,1,7.12,1.75,12.79,12.79,0,0,1,5.29,4.19,32.56,32.56,0,0,1,3,5.35c.83,1.75,1.54,3.43,2.18,5,1.27,3.17,2.22,5.95,2.93,8.24s1.16,4.11,1.43,5.34c.14.62.22,1.1.28,1.41s.08.49.08.49a3.88,3.88,0,0,1-.13-.48c-.08-.31-.17-.78-.33-1.39-.3-1.23-.79-3-1.52-5.3s-1.72-5.05-3-8.2c-.65-1.57-1.37-3.24-2.21-5a33.6,33.6,0,0,0-3-5.27,12.49,12.49,0,0,0-5.16-4,26.92,26.92,0,0,0-7-1.69,72.46,72.46,0,0,0-7.78-.37c-2.68,0-5.44,0-8.28,0-5.66.06-11.64.13-17.76.35a9.26,9.26,0,0,0-7.32,4.88,13.87,13.87,0,0,0-1.41,4.48c-.05.4-.14.79-.16,1.19l-.06,1.2c-.06.8-.05,1.62-.05,2.44,0,6.15,0,12.19.36,18v0a9.47,9.47,0,0,0,3.15,6.93,8.77,8.77,0,0,0,1.62,1,9.74,9.74,0,0,0,1.81.57c.31.05.62.14.93.17l.95.06c.62.06,1.27,0,1.91,0l14.59,0,24.35.06,4.89,0a22.9,22.9,0,0,0,4.3-.18,8.15,8.15,0,0,0,5.35-3.9,8,8,0,0,0,1.1-4.11,8.93,8.93,0,0,0-.07-1.11A1.81,1.81,0,0,1,320.84,274.18Z" style="fill: rgb(38, 50, 56); transform-origin: 288.068px 263.08px;" id="el3chgjvqu62g" class="animable"></path><g id="el775r0oatke9" class=""><g style="opacity: 0.3; transform-origin: 262.579px 301.977px;" class="animable" id="elb8i3j74hy5k"><path d="M269.58,300.4c-.5-.87-1.69-1-2.69-.94l-10.08.15-1.4,1.18a5.73,5.73,0,0,0,4.84,3.67,16.93,16.93,0,0,0,6.34-.73,5.59,5.59,0,0,0,2.39-1A1.93,1.93,0,0,0,269.58,300.4Z" id="elekmwbt58uh8" class="animable" style="transform-origin: 262.579px 301.977px;"></path></g></g><path d="M268.25,301.85c1.43-.18,2.17-.87,2.27-1.51a1.44,1.44,0,0,0-.28-1.14c-1.32-1.66-7-2-10.25-2-3,0-5,.79-5,2.51,0,1.89.65,2.5,5.67,2.5A54.86,54.86,0,0,0,268.25,301.85Z" style="fill: rgb(224, 224, 224); transform-origin: 262.766px 299.712px;" id="elrfgmpwobb3" class="animable"></path><path d="M268.25,301.85a5.62,5.62,0,0,1-1.38.26c-.9.11-2.21.21-3.83.27a42.91,42.91,0,0,1-5.7-.09,4.78,4.78,0,0,1-1.66-.47,1.86,1.86,0,0,1-1-1.6,2.37,2.37,0,0,1,.45-1.86,3.44,3.44,0,0,1,1.66-1,11.89,11.89,0,0,1,3.65-.4c1.17,0,2.29.07,3.36.17a16.05,16.05,0,0,1,5.59,1.25,3,3,0,0,1,.95.76,1.59,1.59,0,0,1,.29,1.07,1.72,1.72,0,0,1-1,1.34,3.3,3.3,0,0,1-1,.3c-.24,0-.36,0-.37,0a7.22,7.22,0,0,0,1.29-.49,1.5,1.5,0,0,0,.85-1.17,1.36,1.36,0,0,0-.26-.86,2.7,2.7,0,0,0-.86-.63,16.77,16.77,0,0,0-5.46-1.11c-1.05-.08-2.17-.12-3.33-.13a11.41,11.41,0,0,0-3.48.38,3,3,0,0,0-1.41.85,1.92,1.92,0,0,0-.36,1.49,1.34,1.34,0,0,0,.7,1.21,4,4,0,0,0,1.47.42,47.42,47.42,0,0,0,5.64.2c1.61,0,2.91-.06,3.81-.11A8.69,8.69,0,0,1,268.25,301.85Z" style="fill: rgb(38, 50, 56); transform-origin: 262.64px 299.691px;" id="el2mg97davh5k" class="animable"></path><path d="M322.66,243.39l18,32.82a3.56,3.56,0,0,0,5,1.31l7.09-4.45-18.31-35.68-9.88,1.9A2.8,2.8,0,0,0,322.66,243.39Z" style="fill: rgb(69, 90, 100); transform-origin: 337.53px 257.723px;" id="el2v92hb1sy0m" class="animable"></path><path d="M322.66,243.39a2.25,2.25,0,0,1-.37-1,2.84,2.84,0,0,1,1.18-2.73,5.16,5.16,0,0,1,2.11-.69l2.58-.51,6.28-1.25.13,0,.07.13c4.45,8.63,10.64,20.65,17.5,33.94L353,273l.11.21-.2.13-4.5,2.82-2.2,1.38a4.11,4.11,0,0,1-2.52.82,3.86,3.86,0,0,1-2.45-1,4.05,4.05,0,0,1-.81-1l-.59-1.07-2.27-4.17-7.84-14.4-5.23-9.7-1.39-2.64-.35-.7a.92.92,0,0,1-.11-.24s.06.07.15.22l.4.67,1.48,2.59c1.28,2.31,3.11,5.58,5.37,9.62s4.94,8.95,7.93,14.35l2.3,4.16c.19.36.39.72.59,1.07a3.44,3.44,0,0,0,.71.9,3.35,3.35,0,0,0,2.12.84,3.7,3.7,0,0,0,2.24-.75l2.19-1.39,4.5-2.82-.09.33c-.28-.53-.58-1.11-.88-1.7-6.8-13.31-12.94-25.36-17.36-34l.2.1-6.3,1.17-2.58.48a5,5,0,0,0-2.05.6,2.77,2.77,0,0,0-1.19,2.56A4.89,4.89,0,0,0,322.66,243.39Z" style="fill: rgb(38, 50, 56); transform-origin: 337.685px 257.785px;" id="el4jcqlxdpbwd" class="animable"></path><rect x="28.84" y="351.54" width="17.32" height="9.07" style="fill: rgb(38, 50, 56); transform-origin: 37.5px 356.075px;" id="el2es3vmz2t7p" class="animable"></rect><polygon points="230.67 359.29 171.87 359.23 171.25 350.72 29.95 351.74 29.95 304.02 230.67 304.02 230.67 359.29" style="fill: #FF725E; transform-origin: 130.31px 331.655px;" id="el1jqtbuyr7pd" class="animable"></polygon><rect x="64.94" y="330.6" width="98.19" height="28.47" style="fill: #FF725E; transform-origin: 114.035px 344.835px;" id="elntkna2dior9" class="animable"></rect><g id="elitjievqdhtd" class=""><g style="opacity: 0.3; transform-origin: 114.035px 344.835px;" class="animable" id="el73yzlyksf45"><rect x="64.94" y="330.6" width="98.19" height="28.47" id="elk9tq5k15q1h" class="animable" style="transform-origin: 114.035px 344.835px;"></rect></g></g><g id="elao2zwd12tlv" class=""><g style="opacity: 0.3; transform-origin: 407.865px 296.15px;" class="animable" id="ela0ib7lw0tq"><path d="M417.75,297.08H398a.93.93,0,0,1-.93-.93h0a.93.93,0,0,1,.93-.93h19.73a.92.92,0,0,1,.93.93h0A.93.93,0,0,1,417.75,297.08Z" id="elgdwrfb8h8oi" class="animable" style="transform-origin: 407.865px 296.15px;"></path></g></g><g id="elb7pfearthds" class=""><g style="opacity: 0.3; transform-origin: 407.865px 298.84px;" class="animable" id="el8m9gdk6uk4w"><path d="M417.75,299.77H398a.93.93,0,0,1-.93-.93h0a.93.93,0,0,1,.93-.93h19.73a.92.92,0,0,1,.93.93h0A.93.93,0,0,1,417.75,299.77Z" id="ell0uin4f4nyf" class="animable" style="transform-origin: 407.865px 298.84px;"></path></g></g><g id="elkuohr2q56xr" class=""><g style="opacity: 0.3; transform-origin: 407.865px 301.53px;" class="animable" id="elbmft2qsj1uj"><path d="M417.75,302.46H398a.93.93,0,0,1-.93-.93h0a.93.93,0,0,1,.93-.93h19.73a.93.93,0,0,1,.93.93h0A.92.92,0,0,1,417.75,302.46Z" id="ele39oywk2oeo" class="animable" style="transform-origin: 407.865px 301.53px;"></path></g></g><g id="elygldey7c73p" class=""><g style="opacity: 0.3; transform-origin: 153.597px 338.69px;" class="animable" id="el0goyvwpzjg9a"><path d="M176.8,341.9c-1.85-7.5-6.32-16.53-12.39-21.3-9.8-7.71-22.37-11.34-34.81-12.15l17.21,12.13a43,43,0,0,1,24.07,48.35C175.82,360.14,179.21,351.69,176.8,341.9Z" id="elofiz2rr4r0i" class="animable" style="transform-origin: 153.597px 338.69px;"></path></g></g><path d="M56.46,367.37a17.65,17.65,0,0,1-17.29-16.93c0-.13,0-.26,0-.39C38.83,335.32,51.45,324,76.63,316c32.61-10.41,50.85-8.51,62.88-4.54,19.77,6.51,27.81,18,30.87,34.09s3,31.06-13.93,32.13c0,0,1.88-45.88-37.49-45.7s-47.13,35.79-47.13,35.79Z" style="fill: #FF725E; transform-origin: 105.542px 342.986px;" id="el9bgekdqwlwh" class="animable"></path><path d="M56.46,367.37h1l2.92,0,11.46.21-.1.08a46.06,46.06,0,0,1,3.38-9.11,51.53,51.53,0,0,1,6.44-10.08A45.2,45.2,0,0,1,92,339.16a42.49,42.49,0,0,1,6.87-3.59c1.22-.56,2.52-.94,3.8-1.42s2.64-.81,4-1.07A54.41,54.41,0,0,1,124.3,332a41.17,41.17,0,0,1,4.62.76,35.89,35.89,0,0,1,4.56,1.43,31.26,31.26,0,0,1,8.48,4.93c5.2,4.25,8.95,10.36,11.3,17a59.41,59.41,0,0,1,2.62,10.45,63.78,63.78,0,0,1,.83,11l-.27-.26c3.46-.24,7.09-1.1,9.84-3.41s4.33-5.79,4.93-9.39a41.66,41.66,0,0,0,.11-11.16,91.43,91.43,0,0,0-1.94-11.26,41.52,41.52,0,0,0-8.47-17.23,43,43,0,0,0-15.19-10.85c-1.42-.6-2.83-1.23-4.28-1.71l-2.16-.77-2.18-.67a63.62,63.62,0,0,0-8.82-1.81,77.39,77.39,0,0,0-8.81-.63c-2.91,0-5.79.1-8.62.34a154,154,0,0,0-31.61,6.55c-2.44.7-4.79,1.53-7.1,2.31s-4.54,1.68-6.69,2.64a73.62,73.62,0,0,0-11.9,6.34,38.52,38.52,0,0,0-9,8.18,24.08,24.08,0,0,0-4.69,9.75c-.15.84-.25,1.67-.38,2.48s-.08,1.62-.12,2.42a17.34,17.34,0,0,0,4.09,11.55,17.66,17.66,0,0,0,4.91,4,18.29,18.29,0,0,0,4.34,1.72,16.74,16.74,0,0,0,2.83.47l1,.1-1,0a16.07,16.07,0,0,1-2.86-.43,17.61,17.61,0,0,1-13-12.83,17.43,17.43,0,0,1-.53-4.58c0-.79,0-1.61.11-2.44s.23-1.66.38-2.51a24.3,24.3,0,0,1,4.7-9.89,39,39,0,0,1,9.11-8.29,74.76,74.76,0,0,1,12-6.4c2.15-1,4.41-1.79,6.71-2.67s4.67-1.61,7.11-2.32a153.11,153.11,0,0,1,31.7-6.61c2.84-.26,5.74-.35,8.67-.36a76,76,0,0,1,8.86.62,64.76,64.76,0,0,1,8.9,1.82l2.2.68,2.17.77c1.47.49,2.89,1.12,4.32,1.72a43.56,43.56,0,0,1,15.38,11A41.89,41.89,0,0,1,169.88,342a90.57,90.57,0,0,1,2,11.32,42,42,0,0,1-.12,11.31c-.61,3.67-2.19,7.34-5.11,9.7s-6.62,3.27-10.14,3.51l-.27,0v-.28a62.85,62.85,0,0,0-.82-10.92,58.26,58.26,0,0,0-2.58-10.37c-2.32-6.61-6-12.64-11.14-16.83a30.31,30.31,0,0,0-8.34-4.87,36.64,36.64,0,0,0-4.5-1.42,40.32,40.32,0,0,0-4.57-.76,54.16,54.16,0,0,0-17.46,1c-1.38.25-2.68.7-4,1s-2.57.84-3.77,1.39a42.73,42.73,0,0,0-6.83,3.55,45,45,0,0,0-10.4,9.24,50.88,50.88,0,0,0-6.45,10,46.06,46.06,0,0,0-3.41,9l0,.09h-.08l-11.47-.31-2.91-.09C56.79,367.4,56.46,367.37,56.46,367.37Z" style="fill: rgb(38, 50, 56); transform-origin: 105.671px 342.89px;" id="eljfqriimb73s" class="animable"></path><rect x="20.63" y="349.14" width="16.46" height="13.87" rx="1.58" style="fill: rgb(38, 50, 56); transform-origin: 28.86px 356.075px;" id="eluym8vufyff" class="animable"></rect><path d="M230,350.3c0,.14-13,.26-29,.26s-29-.12-29-.26,13-.26,29-.26S230,350.15,230,350.3Z" style="fill: rgb(38, 50, 56); transform-origin: 201px 350.3px;" id="ello79lozyp3" class="animable"></path><circle cx="414.31" cy="376.6" r="36.61" style="fill: rgb(38, 50, 56); transform-origin: 414.31px 376.6px;" id="elc71e623md86" class="animable"></circle><circle cx="414.31" cy="376.6" r="23.43" style="fill: rgb(250, 250, 250); transform-origin: 414.31px 376.6px;" id="elt9rb4pxp9on" class="animable"></circle><g id="el7pkxhiajbd4" class=""><circle cx="414.31" cy="376.6" r="17.22" style="fill: rgb(38, 50, 56); transform-origin: 414.31px 376.6px; transform: rotate(-45deg);" class="animable" id="eldjww1ai33n8"></circle></g><g id="elwtkbjdwbnoh" class=""><circle cx="414.31" cy="376.6" r="11.77" style="fill: rgb(224, 224, 224); transform-origin: 414.31px 376.6px; transform: rotate(-45deg);" class="animable" id="elscvikqbg09c"></circle></g><path d="M413.11,367.12c-.24-.52-1-.49-1.52-.34a11.06,11.06,0,0,0-6.44,5.09c-1.27,2.32-1.95,5.75-.51,7.48.43.07.68-.6.73-1.06a7.88,7.88,0,0,0-.12-1.45,6.29,6.29,0,0,1,2.4-5,55.67,55.67,0,0,1,4.74-3.3C412.85,368.18,413.35,367.64,413.11,367.12Z" style="fill: rgb(255, 255, 255); transform-origin: 408.502px 373.02px;" id="elwxjjzfbrq0r" class="animable"></path><path d="M415.89,386.27c.28.5,1,.42,1.55.23a11.1,11.1,0,0,0,6-5.58c1.09-2.42,1.49-5.89-.08-7.5-.43,0-.63.66-.64,1.11A7.1,7.1,0,0,0,423,376a6.33,6.33,0,0,1-2,5.2c-1.33,1.39-3,2.41-4.46,3.66C416.07,385.2,415.61,385.78,415.89,386.27Z" style="fill: rgb(255, 255, 255); transform-origin: 420.103px 380.033px;" id="el2tmjyvbblen" class="animable"></path><circle cx="114.67" cy="376.6" r="36.61" style="fill: rgb(38, 50, 56); transform-origin: 114.67px 376.6px;" id="elo0yksxiwk1" class="animable"></circle><circle cx="114.67" cy="376.6" r="23.43" style="fill: rgb(250, 250, 250); transform-origin: 114.67px 376.6px;" id="elpn20nwjcs2" class="animable"></circle><g id="el1qcryj0mwhz" class=""><circle cx="114.67" cy="376.6" r="17.22" style="fill: rgb(38, 50, 56); transform-origin: 114.67px 376.6px; transform: rotate(-45deg);" class="animable" id="elxamf44v3rw"></circle></g><g id="el00vmmo1u0257m" class=""><circle cx="114.67" cy="376.6" r="11.77" style="fill: rgb(224, 224, 224); transform-origin: 114.67px 376.6px; transform: rotate(-45deg);" class="animable" id="elmp0iyfsbvn"></circle></g><path d="M113.47,367.12c-.23-.52-1-.49-1.52-.34a11.09,11.09,0,0,0-6.44,5.09c-1.27,2.32-1.94,5.75-.5,7.48.42.07.68-.6.72-1.06a7.1,7.1,0,0,0-.12-1.45,6.3,6.3,0,0,1,2.41-5,57.14,57.14,0,0,1,4.73-3.3C113.21,368.18,113.71,367.64,113.47,367.12Z" style="fill: rgb(255, 255, 255); transform-origin: 108.865px 373.02px;" id="eld34pbtygv0u" class="animable"></path><path d="M116.26,386.27c.27.5,1,.42,1.54.23a11.15,11.15,0,0,0,6-5.58c1.08-2.42,1.49-5.89-.08-7.5-.43,0-.63.66-.64,1.11a7.08,7.08,0,0,0,.23,1.44,6.33,6.33,0,0,1-2,5.2c-1.34,1.39-3,2.41-4.47,3.66C116.43,385.2,116,385.78,116.26,386.27Z" style="fill: rgb(255, 255, 255); transform-origin: 120.469px 380.033px;" id="elfvl69id1xtl" class="animable"></path><path d="M230.67,280.23c.14,0,.26,17.7.26,39.53s-.12,39.53-.26,39.53-.26-17.7-.26-39.53S230.53,280.23,230.67,280.23Z" style="fill: rgb(38, 50, 56); transform-origin: 230.67px 319.76px;" id="el92e9mudoyn" class="animable"></path><path d="M228.17,304.32H26.68A4.28,4.28,0,0,1,22.4,300h0a4.28,4.28,0,0,1,4.28-4.29H228.17a4.28,4.28,0,0,1,4.28,4.29h0A4.28,4.28,0,0,1,228.17,304.32Z" style="fill: #FF725E; transform-origin: 127.425px 300.015px;" id="elwqfiwyfi1ui" class="animable"></path><path d="M228.17,304.32a7.69,7.69,0,0,0,1.09-.17,4.27,4.27,0,0,0,3.13-4.16,4.3,4.3,0,0,0-1-2.62,4.2,4.2,0,0,0-2.85-1.51c-1.19,0-2.49,0-3.84,0l-46.07.08-152,.07a4,4,0,0,0-2.15,7.43,4.21,4.21,0,0,0,2.49.62H56.54l40.36,0,68.32.05,46.06.09,12.53,0,3.25,0,1.11,0s-.37,0-1.11,0l-3.25,0-12.53.05-46.06.08-68.32.06H27a4.68,4.68,0,0,1-2.76-.7,4.54,4.54,0,0,1,2.42-8.39l152,.08,46.07.08c1.36,0,2.63,0,3.85,0a4.33,4.33,0,0,1,3,1.58,4.4,4.4,0,0,1,1,2.72,4.31,4.31,0,0,1-.66,2.31,4.24,4.24,0,0,1-2.58,1.9A3.46,3.46,0,0,1,228.17,304.32Z" style="fill: rgb(38, 50, 56); transform-origin: 127.343px 299.849px;" id="eltwlisgko6w" class="animable"></path><g id="elteorp71265a" class=""><g style="opacity: 0.3; transform-origin: 332.19px 291.5px;" class="animable" id="el9vqym8f3pbr"><path d="M230.38,293.83H434a2.33,2.33,0,1,0,0-4.66H230.38a2.33,2.33,0,1,0,0,4.66Z" id="el7skqys5gsxn" class="animable" style="transform-origin: 332.19px 291.5px;"></path></g></g><path d="M229.36,292.85H433a2.33,2.33,0,1,0,0-4.66H229.36a2.33,2.33,0,1,0,0,4.66Z" style="fill: #FF725E; transform-origin: 331.18px 290.52px;" id="eluazokl2g8" class="animable"></path><path d="M229.36,292.85h-.27a2.41,2.41,0,0,1-.8-.19,2.23,2.23,0,0,1-1-.9,2.55,2.55,0,0,1-.25-1.83,2.34,2.34,0,0,1,.5-1,2.18,2.18,0,0,1,1.06-.67,5.15,5.15,0,0,1,1.37-.12h1.48l7.1,0,45.21-.08L433,287.93a2.52,2.52,0,0,1,2.4,1.54,2.75,2.75,0,0,1-.44,2.83,2.66,2.66,0,0,1-1.3.74,7.55,7.55,0,0,1-1.4.07H397.83l-39.61,0L291.16,293,245.94,293l-12.29-.05-3.2,0-1.09,0,1.09,0,3.2,0,12.29-.05,45.22-.08,67.06-.06h74a6.73,6.73,0,0,0,1.29-.06,2,2,0,0,0,1-.58,2.26,2.26,0,0,0,.35-2.28,2,2,0,0,0-1.92-1.22l-149.18-.07-45.21-.08-7.1,0H230a4.39,4.39,0,0,0-1.33.1,2.09,2.09,0,0,0-1.5,1.58,2.43,2.43,0,0,0,.22,1.76,2.23,2.23,0,0,0,.95.9,2.29,2.29,0,0,0,.77.2Z" style="fill: rgb(38, 50, 56); transform-origin: 331.29px 290.523px;" id="elwa5trozflzp" class="animable"></path><path d="M330.63,279.92a9.66,9.66,0,0,1,.56,1.33,14.4,14.4,0,0,1,.83,4.14c.06,3.7.05,9.14.08,16.11,0,13.95,0,34,.09,58.33V360H332l-82.66,0h-.25v-.25c0-10.06,0-20.57,0-31.28,0-26.8,0-52.32,0-75.54v-4.32a13.24,13.24,0,0,1,.59-4.29,11.71,11.71,0,0,1,5.25-6.48,11.52,11.52,0,0,1,3.9-1.42,22.28,22.28,0,0,1,4.06-.18h7.88l28.71,0a17.75,17.75,0,0,1,6.4.8,15.28,15.28,0,0,1,5.3,3.07,15.12,15.12,0,0,1,3.5,4.61c.81,1.68,1.53,3.33,2.27,4.91L324.36,266c2,4.46,3.6,7.93,4.67,10.3.53,1.17.93,2.06,1.2,2.68s.4.92.4.92-.16-.3-.44-.9-.71-1.5-1.25-2.66l-4.76-10.25c-2.07-4.46-4.58-9.92-7.51-16.24-.73-1.58-1.47-3.24-2.28-4.9a14.77,14.77,0,0,0-8.63-7.48,17.23,17.23,0,0,0-6.29-.77l-28.71,0h-7.88a22.89,22.89,0,0,0-4,.18,11.38,11.38,0,0,0-3.75,1.37,11.25,11.25,0,0,0-5,6.24,12.71,12.71,0,0,0-.56,4.14V253c0,23.22,0,48.74,0,75.54v31.28l-.26-.26,82.66.05-.21.21c0-24.36.07-44.38.09-58.33,0-7,0-12.39,0-16.11a14.76,14.76,0,0,0-.77-4.12c-.15-.45-.28-.79-.37-1S330.63,279.92,330.63,279.92Z" style="fill: rgb(38, 50, 56); transform-origin: 290.637px 298.105px;" id="elout2v939vjm" class="animable"></path><g id="el6qe5epn9dkv" class=""><g style="opacity: 0.2; transform-origin: 275.725px 260.28px;" class="animable" id="el4kbajcv4dag"><path d="M292.57,244.82s-1.79,8.31-2.33,12-1.7,7.58-4.55,10a16,16,0,0,1-4.81,2.64c-7.14,2.71-14.88,3.58-22,6.28l.37-20.27a10.36,10.36,0,0,1,10.1-10.17Z" style="fill: rgb(255, 255, 255); transform-origin: 275.725px 260.28px;" id="elo62pgdp8n49" class="animable"></path></g></g><path d="M301.35,255.62c.07.12-7.58,5.16-17.1,11.26s-17.3,10.93-17.37,10.81,7.57-5.16,17.09-11.25S301.27,255.5,301.35,255.62Z" style="fill: rgb(38, 50, 56); transform-origin: 284.115px 266.655px;" id="elf5lahs6href" class="animable"></path><path d="M292.57,256.88c.07.13-4.4,2.86-10,6.11s-10.17,5.78-10.24,5.66,4.39-2.86,10-6.11S292.5,256.76,292.57,256.88Z" style="fill: rgb(38, 50, 56); transform-origin: 282.45px 262.765px;" id="el5fgr3i5wvff" class="animable"></path><path d="M297.84,263.85a13.09,13.09,0,0,1-2.18,1.33l-5.36,3L285,271.26a13.94,13.94,0,0,1-2.25,1.21,11.2,11.2,0,0,1,2.05-1.52c1.32-.87,3.17-2,5.26-3.22s4-2.19,5.44-2.88A11.77,11.77,0,0,1,297.84,263.85Z" style="fill: rgb(38, 50, 56); transform-origin: 290.295px 268.16px;" id="el8hd1g0nax1" class="animable"></path><g id="ell7rl4mb8d4" class=""><g style="opacity: 0.3; transform-origin: 86.03px 299px;" class="animable" id="elt9di39chg8"><path d="M144.86,300H27.2a1,1,0,0,1-1-1h0a1,1,0,0,1,1-1H144.86a1,1,0,0,1,1,1h0A1,1,0,0,1,144.86,300Z" style="fill: rgb(255, 255, 255); transform-origin: 86.03px 299px;" id="elmekgfbsklcd" class="animable"></path></g></g><g id="el8rgz6dxp25d" class=""><g style="opacity: 0.3; transform-origin: 141.44px 298.93px;" class="animable" id="el7et7k56cw8x"><path d="M142.33,298.93a.89.89,0,1,1-.89-.89A.88.88,0,0,1,142.33,298.93Z" style="fill: rgb(255, 255, 255); transform-origin: 141.44px 298.93px;" id="elzulhdke0go" class="animable"></path></g></g><g id="el6eqr9oytnb" class=""><g style="opacity: 0.3; transform-origin: 61.9002px 339.563px;" class="animable" id="elyl6mj8lrio"><path d="M77.24,321.52a4.72,4.72,0,0,0-3,.13c-5.89,2.09-11.9,4.1-17.21,7.43-4.93,3.08-9.28,7.43-11.29,12.89-1.79,4.86-2,9.94,2.18,14.32a4.79,4.79,0,0,0,7.62-.88,4.17,4.17,0,0,0,.51-2.19c-.13-2.62-2.39-4.77-2.5-7.39-.13-3.12,2.74-5.44,5.34-7.17q8.07-5.37,16.53-10.13a9.71,9.71,0,0,0,3-2.24C79.62,324.81,79.82,322.33,77.24,321.52Z" style="fill: rgb(255, 255, 255); transform-origin: 61.9002px 339.563px;" id="elcyc2kfm4s37" class="animable"></path></g></g><g id="elbmuwa8pff8i" class=""><g style="opacity: 0.3; transform-origin: 89.4052px 319.968px;" class="animable" id="elt6zr2t6uwpp"><path d="M89.64,317.39a2.8,2.8,0,0,0-3,2.35,2.85,2.85,0,0,0,2.36,3,2.9,2.9,0,0,0,3.14-2.25,3,3,0,0,0-2-3.31" style="fill: rgb(255, 255, 255); transform-origin: 89.4052px 319.968px;" id="elvba6qsbxwfd" class="animable"></path></g></g><g id="elz9g2ofry9s" class=""><g style="opacity: 0.3; transform-origin: 370.913px 326.541px;" class="animable" id="elfg8jc3n0nlh"><path d="M385.76,313.65c-1.14-1.34-3.29-.91-4.93-.27-11.11,4.31-19.53,11-24.9,21.62a3.65,3.65,0,0,0,2.25,5.22,6.11,6.11,0,0,0,4.72-1.13c4.21-2.82,5.94-8.11,9.33-11.87,3-3.33,7.17-5.31,10.94-7.74a8,8,0,0,0,2.65-2.43A3,3,0,0,0,385.76,313.65Z" style="fill: rgb(255, 255, 255); transform-origin: 370.913px 326.541px;" id="ellqr9xf1r7xf" class="animable"></path></g></g><g id="ell9nc5vd7dmh" class=""><g style="opacity: 0.3; transform-origin: 394.96px 312.36px;" class="animable" id="elorltwfd0ae"><circle cx="394.96" cy="312.36" r="3.12" style="fill: rgb(255, 255, 255); transform-origin: 394.96px 312.36px;" id="elfq48zk3feus" class="animable"></circle></g></g><path d="M146.6,319.19s-.66-.35-1.82-1a46.47,46.47,0,0,0-5.08-2.43,54.28,54.28,0,0,0-18.08-3.8,83.86,83.86,0,0,0-18.5,1.46c-2.35.42-4.24.82-5.54,1.1l-1.5.32a2,2,0,0,1-.54.08,2.22,2.22,0,0,1,.51-.18c.34-.1.84-.25,1.48-.41,1.29-.35,3.17-.8,5.52-1.28a78.21,78.21,0,0,1,18.59-1.61,52,52,0,0,1,18.2,4,39.38,39.38,0,0,1,5,2.59c.58.34,1,.65,1.29.85S146.61,319.17,146.6,319.19Z" style="fill: rgb(255, 255, 255); transform-origin: 121.07px 315.293px;" id="eliu0n6bnjs9i" class="animable"></path><path d="M105.24,331.82c0,.08-1.27.36-3.31.93a60.31,60.31,0,0,0-7.8,2.74,62.55,62.55,0,0,0-7.34,3.81c-1.81,1.11-2.89,1.85-2.94,1.79s.23-.25.69-.62,1.17-.88,2-1.48a47.51,47.51,0,0,1,15.25-6.6c1-.24,1.88-.4,2.47-.49A3.26,3.26,0,0,1,105.24,331.82Z" style="fill: rgb(255, 255, 255); transform-origin: 94.5421px 336.453px;" id="elyvhglndgc6" class="animable"></path><path d="M128.51,297.12c0,.14-21.81.26-48.7.26s-48.7-.12-48.7-.26,21.8-.26,48.7-.26S128.51,297,128.51,297.12Z" style="fill: rgb(255, 255, 255); transform-origin: 79.81px 297.12px;" id="elj9h59pxfw1f" class="animable"></path><path d="M217.16,297.78c0,.15-14.44.26-32.26.26s-32.27-.11-32.27-.26,14.44-.26,32.27-.26S217.16,297.64,217.16,297.78Z" style="fill: rgb(255, 255, 255); transform-origin: 184.895px 297.78px;" id="el6d3pr17iv7m" class="animable"></path><path d="M243.28,289.8a47.81,47.81,0,0,1-7,.26,47.61,47.61,0,0,1-7-.26,47.61,47.61,0,0,1,7-.26A47.81,47.81,0,0,1,243.28,289.8Z" style="fill: rgb(255, 255, 255); transform-origin: 236.28px 289.8px;" id="elmxmzgpvvi1" class="animable"></path><path d="M279,289.3c0,.14-6,.26-13.3.26s-13.31-.12-13.31-.26,6-.26,13.31-.26S279,289.16,279,289.3Z" style="fill: rgb(255, 255, 255); transform-origin: 265.695px 289.3px;" id="el9srr7qaxg69" class="animable"></path><path d="M303,239.23c0,.15-8.26.26-18.46.26s-18.46-.11-18.46-.26,8.26-.26,18.46-.26S303,239.09,303,239.23Z" style="fill: rgb(255, 255, 255); transform-origin: 284.54px 239.23px;" id="elklkp2lptvvp" class="animable"></path><path d="M371.74,348c0,.14-4.68.26-10.44.26s-10.45-.12-10.45-.26a103,103,0,0,1,10.45-.26A102.84,102.84,0,0,1,371.74,348Z" style="fill: rgb(255, 255, 255); transform-origin: 361.295px 347.983px;" id="elo1u0wtkvlws" class="animable"></path><path d="M370.65,353.79a58.29,58.29,0,0,1-7.93.27,58.29,58.29,0,0,1-7.93-.27,61.46,61.46,0,0,1,7.93-.26A61.46,61.46,0,0,1,370.65,353.79Z" style="fill: rgb(255, 255, 255); transform-origin: 362.72px 353.796px;" id="elcp1bqonqht" class="animable"></path><path d="M363.76,359.7a28.34,28.34,0,0,1-7.66,0,28.34,28.34,0,0,1,7.66,0Z" style="fill: rgb(255, 255, 255); transform-origin: 359.93px 359.7px;" id="eltobl0tvni" class="animable"></path><path d="M436.68,308.59a4.34,4.34,0,0,1-.8-.14l-2.26-.53c-1-.23-2.2-.44-3.6-.74s-3-.53-4.8-.77a98.22,98.22,0,0,0-28,.2,94.94,94.94,0,0,0-15.05,3.58,62.11,62.11,0,0,0-11.62,4.89,33.83,33.83,0,0,0-6.87,5c-.73.69-1.27,1.26-1.62,1.66a5.46,5.46,0,0,1-.57.58,4.36,4.36,0,0,1,.49-.65,19.45,19.45,0,0,1,1.55-1.73,32.1,32.1,0,0,1,6.83-5.16,60.7,60.7,0,0,1,11.66-5,94.12,94.12,0,0,1,15.12-3.64,95.2,95.2,0,0,1,28.16,0c1.79.27,3.4.58,4.81.86s2.61.56,3.59.83l2.24.61A6.83,6.83,0,0,1,436.68,308.59Z" style="fill: rgb(255, 255, 255); transform-origin: 399.085px 313.706px;" id="elpwrda3xath" class="animable"></path><path d="M351.42,332.38a10.07,10.07,0,0,1,2-2.53,10.58,10.58,0,0,1,2.38-2.18,10,10,0,0,1-2,2.53A10.43,10.43,0,0,1,351.42,332.38Z" style="fill: rgb(255, 255, 255); transform-origin: 353.61px 330.025px;" id="elr03097mdb7" class="animable"></path><path d="M423.36,289.71c0,.14-8.84.26-19.74.26s-19.74-.12-19.74-.26,8.84-.26,19.74-.26S423.36,289.57,423.36,289.71Z" style="fill: rgb(255, 255, 255); transform-origin: 403.62px 289.71px;" id="el2h93jnb3f98" class="animable"></path><path d="M283.46,289.71c0-.14,17.89-.26,40-.26s40,.12,40,.26-17.89.26-40,.26S283.46,289.85,283.46,289.71Z" style="fill: rgb(255, 255, 255); transform-origin: 323.46px 289.71px;" id="elnca8rb8y3p" class="animable"></path><path d="M72.51,322.92a11.13,11.13,0,0,1-1.69.69c-1.09.42-2.69,1-4.63,1.78a68.81,68.81,0,0,0-6.7,3,37.38,37.38,0,0,0-7.4,5,24.75,24.75,0,0,0-5.46,7,20.14,20.14,0,0,0-2.16,6.92,15.94,15.94,0,0,0,.18,4.89c.24,1.14.44,1.76.39,1.78a1.65,1.65,0,0,1-.18-.44,8.89,8.89,0,0,1-.4-1.29,14.74,14.74,0,0,1-.35-5,19.8,19.8,0,0,1,2.09-7.1A24.87,24.87,0,0,1,51.74,333a37,37,0,0,1,7.53-5A64.7,64.7,0,0,1,66.06,325c2-.73,3.58-1.26,4.7-1.62l1.29-.39A2,2,0,0,1,72.51,322.92Z" style="fill: rgb(255, 255, 255); transform-origin: 58.2725px 338.45px;" id="eln89ytmxpicd" class="animable"></path><path d="M36.73,353.24c-.15,0-.26-10.95-.26-24.46s.11-24.46.26-24.46.26,10.95.26,24.46S36.87,353.24,36.73,353.24Z" style="fill: rgb(38, 50, 56); transform-origin: 36.73px 328.78px;" id="el1s1smsnq9k3" class="animable"></path><path d="M221.71,362c-.14,0-.26-12.88-.26-28.78s.12-28.78.26-28.78.26,12.88.26,28.78S221.85,362,221.71,362Z" style="fill: rgb(38, 50, 56); transform-origin: 221.71px 333.22px;" id="el6udqgnit8tl" class="animable"></path><g id="elvv8kxaihyc" class=""><g style="opacity: 0.2; transform-origin: 247.37px 241.985px;" class="animable" id="elo8t7whh6ot"><path d="M261.54,227.62c0,1.13-2.55,1.85-5.93,3.43a27.91,27.91,0,0,0-16.75,20.79c-.82,3.64-1,6.25-2.08,6.53-.52.13-1.18-.38-1.86-1.51a13.92,13.92,0,0,1-1.58-5.21,22,22,0,0,1,.6-8.14A24,24,0,0,1,246.43,228a21.74,21.74,0,0,1,7.82-2.32,13.77,13.77,0,0,1,5.43.43C260.93,226.55,261.56,227.1,261.54,227.62Z" style="fill: rgb(255, 255, 255); transform-origin: 247.37px 241.985px;" id="elte9gamaubxj" class="animable"></path></g></g><path d="M251.86,250.94a5,5,0,0,1-.08-2.05,11.84,11.84,0,0,1,4.85-8.38,5.19,5.19,0,0,1,1.82-.95,19,19,0,0,1-1.59,1.24,13.67,13.67,0,0,0-3.1,3.65,13.84,13.84,0,0,0-1.62,4.49A17.93,17.93,0,0,1,251.86,250.94Z" style="fill: rgb(255, 255, 255); transform-origin: 255.08px 245.25px;" id="elzyluiu0o9m" class="animable"></path><path d="M232.73,265a92.59,92.59,0,0,1,.26,9.74,92.59,92.59,0,0,1-.26,9.74,89.44,89.44,0,0,1-.26-9.74A89.44,89.44,0,0,1,232.73,265Z" style="fill: rgb(255, 255, 255); transform-origin: 232.728px 274.74px;" id="elox3tum80hjj" class="animable"></path><path d="M312.91,226.59c0,.14-9.88.26-22.06.26s-22.06-.12-22.06-.26,9.87-.26,22.06-.26S312.91,226.45,312.91,226.59Z" style="fill: rgb(255, 255, 255); transform-origin: 290.85px 226.59px;" id="eliidtfkg81ur" class="animable"></path><path d="M448.52,300s-1.79-9.55,19.21-12.46v24.92S448.52,308.26,448.52,300Z" style="fill: #FF725E; transform-origin: 458.106px 300px;" id="elw3d7eeny9xo" class="animable"></path><path d="M448.52,300a11.45,11.45,0,0,0,.39,1.73,9,9,0,0,0,3,3.84c3.32,2.66,9,5,15.86,6.65l-.29.24c0-4,0-8.29,0-12.81,0-4.26,0-8.36,0-12.11l.28.25a51.7,51.7,0,0,0-9.7,2.25,19.24,19.24,0,0,0-6.73,3.86,8.86,8.86,0,0,0-2.62,4.28,6.65,6.65,0,0,0-.19,1.35,2.16,2.16,0,0,1,0,.47,1.62,1.62,0,0,1-.07-.47,5.31,5.31,0,0,1,.11-1.38,8.85,8.85,0,0,1,2.56-4.47,19.29,19.29,0,0,1,6.8-4,50.83,50.83,0,0,1,9.78-2.35l.28,0v.29c0,3.75,0,7.85,0,12.11,0,4.52,0,8.85,0,12.81v.31l-.3-.08c-6.9-1.67-12.61-4.11-15.95-6.89a11.74,11.74,0,0,1-2-2.1,7.12,7.12,0,0,1-1-1.92,4.42,4.42,0,0,1-.23-1.32A2.69,2.69,0,0,1,448.52,300Z" style="fill: rgb(38, 50, 56); transform-origin: 458.211px 300.09px;" id="elcn616hhbkp6" class="animable"></path><ellipse cx="468.04" cy="299.76" rx="2.31" ry="12.24" style="fill: rgb(224, 224, 224); transform-origin: 468.04px 299.76px;" id="eltudmxkuj2v" class="animable"></ellipse><path d="M470.35,299.76a1.55,1.55,0,0,1-.05-.51c0-.4-.05-.9-.08-1.49-.08-1.29-.19-3.17-.53-5.45a16.79,16.79,0,0,0-.9-3.62,2.6,2.6,0,0,0-.48-.81c-.22-.2-.37-.16-.59.08a5.74,5.74,0,0,0-.8,2,53,53,0,0,0,0,19.67,5.66,5.66,0,0,0,.8,2c.22.24.37.28.59.07a2.44,2.44,0,0,0,.48-.8,16.79,16.79,0,0,0,.9-3.62c.34-2.28.45-4.16.53-5.45,0-.59,0-1.09.08-1.49a1.65,1.65,0,0,1,.05-.52,2.19,2.19,0,0,1,0,.53c0,.34,0,.84,0,1.49a42.8,42.8,0,0,1-.37,5.49,16.76,16.76,0,0,1-.86,3.74,2.87,2.87,0,0,1-.58,1,.81.81,0,0,1-.65.26,1,1,0,0,1-.59-.36,5.85,5.85,0,0,1-.91-2.14,51.15,51.15,0,0,1,0-19.93,5.85,5.85,0,0,1,.91-2.14,1,1,0,0,1,.59-.35.78.78,0,0,1,.65.25,2.87,2.87,0,0,1,.58,1,16.76,16.76,0,0,1,.86,3.74,42.8,42.8,0,0,1,.37,5.49c0,.65,0,1.15,0,1.49A2,2,0,0,1,470.35,299.76Z" style="fill: rgb(38, 50, 56); transform-origin: 467.888px 299.869px;" id="elj2bzfun45wb" class="animable"></path><g id="elrpf8voh9sy" class=""><g style="opacity: 0.3; transform-origin: 457.475px 295.985px;" class="animable" id="el1yqsf7i4znm"><path d="M463.81,292.76a1.72,1.72,0,0,0-2.12-2.08,20.77,20.77,0,0,0-8,4.16,8.22,8.22,0,0,0-2.15,2.33,3.29,3.29,0,0,0-.14,3.06,2.1,2.1,0,0,0,2.71.94c.78-.43,1.09-1.38,1.59-2.13a10.4,10.4,0,0,1,3.05-2.78c1.17-.74,2.44-1.12,3.63-1.77A3.15,3.15,0,0,0,463.81,292.76Z" style="fill: rgb(255, 255, 255); transform-origin: 457.475px 295.985px;" id="elw1q7d2ekxb" class="animable"></path></g></g><path d="M461.29,291a12.32,12.32,0,0,1-2.23.9,17.83,17.83,0,0,0-5,2.64,8.22,8.22,0,0,0-2.9,4.7,10.37,10.37,0,0,0,0,2.35s-.14-.2-.24-.61a4.93,4.93,0,0,1-.09-1.8,7.94,7.94,0,0,1,2.93-5,15.64,15.64,0,0,1,5.25-2.59A9.86,9.86,0,0,1,461.29,291Z" style="fill: rgb(255, 255, 255); transform-origin: 456.038px 296.295px;" id="ela4g5lmvdwnn" class="animable"></path><path d="M464.65,290.25c0,.14-.19.32-.5.42s-.6.05-.64-.09.18-.32.49-.41S464.61,290.11,464.65,290.25Z" style="fill: rgb(255, 255, 255); transform-origin: 464.078px 290.421px;" id="el8acpu2zi1b" class="animable"></path><path d="M369.47,290.61s-1.34-7.14,14.31-9.37a.16.16,0,0,1,.19.16v18.41a.15.15,0,0,1-.19.16C382.06,299.57,369.47,296.44,369.47,290.61Z" style="fill: #FF725E; transform-origin: 376.706px 290.606px;" id="elz17w9hdatde" class="animable"></path><path d="M369.47,290.61a5.69,5.69,0,0,0,.66,2.05,10.94,10.94,0,0,0,4.44,3.75,38.44,38.44,0,0,0,8.23,3.07l.6.15.31.08.11,0a.12.12,0,0,0-.08,0c0,.11,0-.09,0-.17v-1c0-.87,0-1.76,0-2.67,0-1.81,0-3.68,0-5.61s0-3.79,0-5.61c0-.9,0-1.8,0-2.67v-.65s.08.08.06.07l-.31.06-1.24.21a26.79,26.79,0,0,0-8.32,2.65,8.66,8.66,0,0,0-4,4.11,5.61,5.61,0,0,0-.41,2.1,1.41,1.41,0,0,1-.07-.56,4.79,4.79,0,0,1,.29-1.61,8.63,8.63,0,0,1,4-4.36,26.67,26.67,0,0,1,8.42-2.81l1.26-.22.31-.05a.42.42,0,0,1,.5.41v.65c0,.87,0,1.77,0,2.67,0,1.82,0,3.69,0,5.61s0,3.8,0,5.61c0,.91,0,1.8,0,2.67v1c0,.12.06.15-.07.45a.42.42,0,0,1-.36.17l-.19,0-.31-.08-.62-.16a37.37,37.37,0,0,1-8.28-3.21,10.71,10.71,0,0,1-4.44-4,4.46,4.46,0,0,1-.49-1.57A3.2,3.2,0,0,1,369.47,290.61Z" style="fill: rgb(38, 50, 56); transform-origin: 376.845px 290.536px;" id="elozben9p8ou" class="animable"></path><path d="M386,290.45c0,5.11-.78,9.25-1.74,9.25s-1.74-4.14-1.74-9.25.78-9.24,1.74-9.24S386,285.35,386,290.45Z" style="fill: rgb(224, 224, 224); transform-origin: 384.26px 290.455px;" id="elgz9bqd6o2mm" class="animable"></path><path d="M386,290.45a11.08,11.08,0,0,1-.13-1.51,41.2,41.2,0,0,0-.41-4.11,13.12,13.12,0,0,0-.68-2.71,2,2,0,0,0-.36-.59c-.15-.14-.2-.11-.36.05a4.3,4.3,0,0,0-.59,1.46,40.13,40.13,0,0,0,0,14.82,4.22,4.22,0,0,0,.59,1.46c.16.16.21.2.36.06a2.26,2.26,0,0,0,.36-.59,13.2,13.2,0,0,0,.68-2.72c.27-1.72.35-3.13.41-4.1a11.13,11.13,0,0,1,.13-1.52A7.31,7.31,0,0,1,386,292a32.88,32.88,0,0,1-.26,4.15,13.13,13.13,0,0,1-.64,2.84,2.54,2.54,0,0,1-.45.74,1.12,1.12,0,0,1-.22.16.7.7,0,0,1-.32.05.8.8,0,0,1-.48-.29A4.55,4.55,0,0,1,383,298a38.18,38.18,0,0,1,0-15.06,4.55,4.55,0,0,1,.7-1.64.79.79,0,0,1,.48-.28.51.51,0,0,1,.32.05c.09,0,.14.1.22.15a2.58,2.58,0,0,1,.45.75,13.05,13.05,0,0,1,.64,2.83,33,33,0,0,1,.26,4.15A7.31,7.31,0,0,1,386,290.45Z" style="fill: rgb(38, 50, 56); transform-origin: 384.166px 290.477px;" id="el6ig1vkiwf7e" class="animable"></path><g id="elealamskx8zu" class=""><g style="opacity: 0.3; transform-origin: 376.053px 287.695px;" class="animable" id="elvf8s2jajvfs"><path d="M380,286.45a1.49,1.49,0,0,0-1.22-2.68,16.45,16.45,0,0,0-5.39,3,6.17,6.17,0,0,0-1.61,1.77,2.44,2.44,0,0,0-.11,2.3,1.57,1.57,0,0,0,2,.71c.59-.32.83-1,1.2-1.6a7.73,7.73,0,0,1,2.31-2.1c.88-.56,1.84-.85,2.74-1.34Z" style="fill: rgb(255, 255, 255); transform-origin: 376.053px 287.695px;" id="elcpc2ppe5w5u" class="animable"></path></g></g><path d="M379.11,283.82a7.25,7.25,0,0,1-1.67.72,13.45,13.45,0,0,0-3.77,2,6.14,6.14,0,0,0-2.19,3.5,10.7,10.7,0,0,0-.07,1.77,2.64,2.64,0,0,1-.3-1.83,6,6,0,0,1,2.23-3.85,11.41,11.41,0,0,1,4-1.95A6.12,6.12,0,0,1,379.11,283.82Z" style="fill: rgb(255, 255, 255); transform-origin: 375.085px 287.815px;" id="el7hazgjcejmk" class="animable"></path><path d="M381.65,283.27c0,.14-.12.3-.36.37s-.47,0-.51-.12.12-.31.36-.38S381.61,283.13,381.65,283.27Z" style="fill: rgb(255, 255, 255); transform-origin: 381.212px 283.389px;" id="elcbsr5o8crc6" class="animable"></path><path d="M332.34,272.49s.73-7.15-7.74-9.38c-.05,0-.1.06-.1.16v18.42c0,.1.05.18.1.16C325.53,281.45,332.34,278.31,332.34,272.49Z" style="fill: #FF725E; transform-origin: 328.428px 272.482px;" id="elfqmf2p5iz1d" class="animable"></path><path d="M332.34,272.49a1.64,1.64,0,0,1,0,.46c0,.17,0,.35,0,.55s-.08.47-.13.76a8.88,8.88,0,0,1-2.35,4.21,15.24,15.24,0,0,1-2.58,2.15c-.5.34-1,.66-1.61,1-.28.15-.57.29-.88.43l-.06,0s0,0-.14,0-.28-.2-.31-.26a1.27,1.27,0,0,1,0-.31V281c0-2.7,0-5.65,0-8.74s0-6,0-8.74v-.25a.53.53,0,0,1,0-.23.4.4,0,0,1,.13-.14c0-.07.28,0,.25,0l.48.15.93.3a15.72,15.72,0,0,1,1.7.81,9.69,9.69,0,0,1,2.61,2.14,8.69,8.69,0,0,1,1.94,4.42,6.5,6.5,0,0,1,.06,1.32,1.15,1.15,0,0,1-.06.46s0-.64-.2-1.74a8.85,8.85,0,0,0-2-4.22,9.46,9.46,0,0,0-2.54-2,14.74,14.74,0,0,0-1.65-.76l-.91-.28-.46-.15c.23-.26.17.06.18.2,0,2.69,0,5.64,0,8.74s0,6,0,8.74v.68c-.05,0-.17.1-.15.11h0a1.78,1.78,0,0,1-.07-.17h0l0,0,.05,0,.86-.41a16,16,0,0,0,1.58-.92,15.12,15.12,0,0,0,2.55-2.05,8.9,8.9,0,0,0,2.42-4c.07-.27.14-.51.18-.73s0-.38.06-.54A1.38,1.38,0,0,1,332.34,272.49Z" style="fill: rgb(38, 50, 56); transform-origin: 328.329px 272.459px;" id="elhm6uzaa6gtu" class="animable"></path><path d="M323.43,272.33c0,5.1.42,9.24.94,9.24s.94-4.14.94-9.24-.42-9.25-.94-9.25S323.43,267.22,323.43,272.33Z" style="fill: rgb(224, 224, 224); transform-origin: 324.37px 272.325px;" id="el644hlvkkkgq" class="animable"></path><path d="M323.43,272.33a6.47,6.47,0,0,1-.09-1.48c0-1,0-2.33.09-4a25.65,25.65,0,0,1,.3-2.79,5,5,0,0,1,.22-.77,1,1,0,0,1,.12-.22.36.36,0,0,1,.14-.13.36.36,0,0,1,.29,0,.77.77,0,0,1,.33.46,8,8,0,0,1,.35,1.65,69.17,69.17,0,0,1,0,14.67,7.83,7.83,0,0,1-.35,1.65c-.07.14-.06.29-.33.46a.33.33,0,0,1-.29,0,.44.44,0,0,1-.14-.12,1.24,1.24,0,0,1-.12-.22,5.48,5.48,0,0,1-.22-.78,25.65,25.65,0,0,1-.3-2.79c-.1-1.7-.11-3.08-.09-4a6.33,6.33,0,0,1,.09-1.47,9.14,9.14,0,0,1,.11,1.47c0,.95.11,2.32.26,4a24.46,24.46,0,0,0,.36,2.73,3.48,3.48,0,0,0,.2.69.44.44,0,0,0,.06.12s0,0,0,.07,0,.06,0,0a.25.25,0,0,0-.05-.08s0,0,0,0a.11.11,0,0,0,0-.05,1.07,1.07,0,0,0,.07-.15,8.87,8.87,0,0,0,.3-1.55,77.89,77.89,0,0,0,0-14.54,8.81,8.81,0,0,0-.3-1.56,1.07,1.07,0,0,0-.07-.15l0-.05s0,0,0,0,0-.07.05-.08,0,0,0,0,0,0,0,.07a.67.67,0,0,0-.06.12,3.69,3.69,0,0,0-.2.69,24.46,24.46,0,0,0-.36,2.73c-.15,1.69-.21,3.06-.26,4A9.38,9.38,0,0,1,323.43,272.33Z" style="fill: rgb(38, 50, 56); transform-origin: 324.45px 272.386px;" id="eltz4gosewyk" class="animable"></path><g id="elx4u9mjm0y4" class=""><g style="opacity: 0.3; transform-origin: 328.793px 269.583px;" class="animable" id="elxstoakt6nj9"><path d="M326.66,268.32c-.79-.85-.21-3.16.66-2.67a9.27,9.27,0,0,1,2.92,3,6.42,6.42,0,0,1,.87,1.76,4.32,4.32,0,0,1,.06,2.31c-.21.7-.73,1.1-1.11.71a5.35,5.35,0,0,1-.65-1.61,7.07,7.07,0,0,0-1.24-2.1c-.48-.56-1-.84-1.49-1.34Z" style="fill: rgb(255, 255, 255); transform-origin: 328.793px 269.583px;" id="el2pr1bkhas93" class="animable"></path></g></g><path d="M327.12,265.69a3.47,3.47,0,0,1,1.33.58,5.89,5.89,0,0,1,2.36,2.58,7.75,7.75,0,0,1,.75,3.42,2.68,2.68,0,0,1-.27,1.42,12.52,12.52,0,0,0-1-4.61,6.59,6.59,0,0,0-2.1-2.51C327.55,266.06,327.08,265.76,327.12,265.69Z" style="fill: rgb(255, 255, 255); transform-origin: 329.344px 269.69px;" id="elb4r2xnd22m" class="animable"></path><path d="M325.76,265.14a.25.25,0,0,1,.35-.1.26.26,0,0,1,.11.35.27.27,0,0,1-.36.11A.27.27,0,0,1,325.76,265.14Z" style="fill: rgb(255, 255, 255); transform-origin: 325.989px 265.267px;" id="elsk8hbi2ublo" class="animable"></path><path d="M34.57,336.45s1.35-7.2-14.5-9.4v18.81S34.57,342.7,34.57,336.45Z" style="fill: #FF725E; transform-origin: 27.3343px 336.455px;" id="el74k05nzbqyd" class="animable"></path><path d="M34.57,336.45a3.29,3.29,0,0,1-.16,1.36,6.59,6.59,0,0,1-2.24,3.05c-2.52,2.12-6.84,4-12,5.24l-.3.07v-.31c0-3,0-6.26,0-9.67,0-3.22,0-6.31,0-9.14v-.29l.28.05a38.49,38.49,0,0,1,7.39,1.78,14.7,14.7,0,0,1,5.14,3.07,6.6,6.6,0,0,1,1.93,3.39,4.32,4.32,0,0,1,.08,1.05.87.87,0,0,1-.07.35,6.11,6.11,0,0,0-2.15-4.58A14.83,14.83,0,0,0,27.35,329,40.09,40.09,0,0,0,20,327.29l.28-.24c0,2.83,0,5.92,0,9.14,0,3.41,0,6.68,0,9.67l-.3-.24c5.16-1.22,9.46-3,12-5a6.76,6.76,0,0,0,2.28-2.88A10.62,10.62,0,0,0,34.57,336.45Z" style="fill: rgb(38, 50, 56); transform-origin: 27.2823px 336.465px;" id="el44e73a41psj" class="animable"></path><ellipse cx="19.83" cy="336.29" rx="1.74" ry="9.24" style="fill: rgb(224, 224, 224); transform-origin: 19.83px 336.29px;" id="el6ggksn7s76y" class="animable"></ellipse><path d="M18.09,336.29a7.31,7.31,0,0,1-.08-1.52,33,33,0,0,1,.26-4.15,12.54,12.54,0,0,1,.65-2.83,2.34,2.34,0,0,1,.44-.75c.08-.05.13-.12.22-.15s.21-.09.32-.05a.79.79,0,0,1,.48.28,4.55,4.55,0,0,1,.7,1.64,32.65,32.65,0,0,1,.75,7.53,32.59,32.59,0,0,1-.75,7.53,4.55,4.55,0,0,1-.7,1.64.8.8,0,0,1-.48.29c-.11,0-.21,0-.32-.05a1.77,1.77,0,0,1-.22-.16,2.3,2.3,0,0,1-.44-.74,12.74,12.74,0,0,1-.65-2.84,32.88,32.88,0,0,1-.26-4.15,7.31,7.31,0,0,1,.08-1.52,11.13,11.13,0,0,1,.13,1.52,39,39,0,0,0,.42,4.1,12.54,12.54,0,0,0,.67,2.72,2.26,2.26,0,0,0,.36.59c.15.14.2.1.36-.06a4.22,4.22,0,0,0,.59-1.46,34.32,34.32,0,0,0,.69-7.41,34.32,34.32,0,0,0-.69-7.41,4.3,4.3,0,0,0-.59-1.46c-.16-.16-.21-.19-.36-.05a2,2,0,0,0-.36.59,12.46,12.46,0,0,0-.67,2.71,38.89,38.89,0,0,0-.42,4.11A11.08,11.08,0,0,1,18.09,336.29Z" style="fill: rgb(38, 50, 56); transform-origin: 19.9175px 336.288px;" id="elrcss3jnt0sn" class="animable"></path><g id="elanyodmr5kqc" class=""><g style="opacity: 0.3; transform-origin: 27.784px 333.43px;" class="animable" id="el6gm2mat0d7g"><path d="M23,331a1.3,1.3,0,0,1,1.6-1.57,15.86,15.86,0,0,1,6.05,3.14,6.21,6.21,0,0,1,1.62,1.77,2.47,2.47,0,0,1,.1,2.3,1.57,1.57,0,0,1-2,.71c-.59-.32-.83-1-1.2-1.6a7.62,7.62,0,0,0-2.31-2.1c-.88-.56-1.84-.85-2.74-1.34A2.38,2.38,0,0,1,23,331Z" style="fill: rgb(255, 255, 255); transform-origin: 27.784px 333.43px;" id="elc1voscsv35d" class="animable"></path></g></g><path d="M24.93,329.66a6.06,6.06,0,0,1,1.79.37,11.41,11.41,0,0,1,4,2,6,6,0,0,1,2.23,3.85,2.58,2.58,0,0,1-.3,1.82,10.58,10.58,0,0,0-.07-1.76,6.12,6.12,0,0,0-2.18-3.5,13.62,13.62,0,0,0-3.78-2A7.25,7.25,0,0,1,24.93,329.66Z" style="fill: rgb(255, 255, 255); transform-origin: 28.9663px 333.68px;" id="elbb51l7lzhz9" class="animable"></path><path d="M22.4,329.11c0-.14.26-.2.5-.13s.4.24.36.38-.27.19-.51.12S22.35,329.25,22.4,329.11Z" style="fill: rgb(255, 255, 255); transform-origin: 22.8285px 329.231px;" id="elodbhc0gvp8n" class="animable"></path></g><g id="freepik--Sun--inject-139" class="animable" style="transform-origin: 356.695px 109.965px;"><g id="elqcjldafgxu"><circle cx="356.37" cy="109.89" r="13.49" style="fill: #FF725E; transform-origin: 356.37px 109.89px; transform: rotate(-80.82deg);" class="animable" id="elb7igqnljf19"></circle></g><path d="M354.45,140a54.4,54.4,0,0,1-.14-5.56,54.4,54.4,0,0,1,.14-5.56,54.4,54.4,0,0,1,.14,5.56A54.4,54.4,0,0,1,354.45,140Z" style="fill: #FF725E; transform-origin: 354.45px 134.44px;" id="elw5o4dzx6sj" class="animable"></path><path d="M346.68,125.78c.07,0-1.2,2.36-2.83,5.19s-3,5.09-3.08,5.05,1.2-2.37,2.83-5.19S346.61,125.74,346.68,125.78Z" style="fill: #FF725E; transform-origin: 343.725px 130.9px;" id="eldoj2ldj0qlq" class="animable"></path><path d="M338.7,120.81a28.26,28.26,0,0,1-3.15,2.69,30.82,30.82,0,0,1-3.32,2.46,30.23,30.23,0,0,1,3.15-2.68A30.67,30.67,0,0,1,338.7,120.81Z" style="fill: #FF725E; transform-origin: 335.465px 123.385px;" id="elm5uso0knw6c" class="animable"></path><path d="M367.9,134.56a7.78,7.78,0,0,1-.35-1.37c-.2-.85-.47-2-.82-3.3s-.69-2.43-1-3.26a7.67,7.67,0,0,1-.38-1.36,5.63,5.63,0,0,1,.57,1.29c.31.82.69,2,1,3.26s.59,2.47.73,3.33A5.77,5.77,0,0,1,367.9,134.56Z" style="fill: #FF725E; transform-origin: 366.625px 129.915px;" id="elbj8kp9uywvj" class="animable"></path><path d="M381.58,124.86a49.86,49.86,0,0,1-4-3.3,47.51,47.51,0,0,1-3.8-3.51,45.57,45.57,0,0,1,4,3.3A45.42,45.42,0,0,1,381.58,124.86Z" style="fill: #FF725E; transform-origin: 377.68px 121.455px;" id="elynxdrwwao5" class="animable"></path><path d="M386.82,111.52a11.25,11.25,0,0,1-1.63-.24c-1-.16-2.38-.38-3.91-.55s-2.93-.28-3.94-.35a10.82,10.82,0,0,1-1.64-.14,9.3,9.3,0,0,1,1.65-.06c1,0,2.42.09,4,.26s2.93.43,3.92.65A7.38,7.38,0,0,1,386.82,111.52Z" style="fill: #FF725E; transform-origin: 381.26px 110.844px;" id="elt57zymu2ghf" class="animable"></path><path d="M386.83,98.4c0,.08-2.9.85-6.52,1.74s-6.56,1.53-6.58,1.45,2.9-.85,6.52-1.73S386.82,98.33,386.83,98.4Z" style="fill: #FF725E; transform-origin: 380.28px 99.9958px;" id="el42wcjyozit3" class="animable"></path><path d="M371.6,83.12c.06,0-1.33,2.27-3.12,5s-3.29,4.86-3.36,4.82,1.33-2.27,3.12-5S371.53,83.08,371.6,83.12Z" style="fill: #FF725E; transform-origin: 368.36px 88.03px;" id="el2p91wmn9e3c" class="animable"></path><path d="M356.47,79.93a12.43,12.43,0,0,1,0,1.85c0,1.14,0,2.72,0,4.46s0,3.32,0,4.46a13.58,13.58,0,0,1,0,1.85,10.32,10.32,0,0,1-.19-1.84c-.07-1.14-.12-2.72-.13-4.47s.06-3.33.12-4.47A12.61,12.61,0,0,1,356.47,79.93Z" style="fill: #FF725E; transform-origin: 356.327px 86.24px;" id="elbpoto2jpeuo" class="animable"></path><path d="M345,94.19c-.06,0-1.49-2.16-3.17-4.92a58.18,58.18,0,0,1-2.93-5.07,58.08,58.08,0,0,1,3.17,4.92A58.18,58.18,0,0,1,345,94.19Z" style="fill: #FF725E; transform-origin: 341.95px 89.195px;" id="eltebwi7881de" class="animable"></path><path d="M338.18,100a6.39,6.39,0,0,1-1.43-.22c-.88-.19-2.08-.48-3.39-.87s-2.49-.79-3.32-1.11a6.3,6.3,0,0,1-1.33-.59,8.37,8.37,0,0,1,1.39.4c.85.27,2,.64,3.34,1s2.49.71,3.35.94A10.29,10.29,0,0,1,338.18,100Z" style="fill: #FF725E; transform-origin: 333.445px 98.605px;" id="elxrw3zr731fj" class="animable"></path><path d="M335.19,110.37a69.25,69.25,0,0,1-8.63.83,64.53,64.53,0,0,1,8.63-.83Z" style="fill: #FF725E; transform-origin: 330.875px 110.785px;" id="elcdzalhlrste" class="animable"></path></g><g id="freepik--Birds--inject-139" class="animable" style="transform-origin: 121.22px 129.92px;"><path d="M113.82,147.36s-.78-.27-2.22-.59a17.8,17.8,0,0,0-6.17-.24,16.65,16.65,0,0,0-8.32,3.59,17.3,17.3,0,0,0-5.87,9.32l0,.1-.17.67-.26-.63a18.5,18.5,0,0,0-7-8.49,18,18,0,0,0-8.58-2.86,19,19,0,0,0-6.13.56c-1.42.37-2.17.7-2.19.66a4.35,4.35,0,0,1,.54-.26,14.59,14.59,0,0,1,1.6-.57,18.35,18.35,0,0,1,6.2-.71A18.09,18.09,0,0,1,84,150.74a18.86,18.86,0,0,1,7.22,8.67l-.43,0,0-.1a17.5,17.5,0,0,1,6-9.54,16.77,16.77,0,0,1,8.54-3.58,16.94,16.94,0,0,1,6.25.38,13.7,13.7,0,0,1,1.63.51A3.09,3.09,0,0,1,113.82,147.36Z" style="fill: rgb(38, 50, 56); transform-origin: 90.365px 153.134px;" id="elptyxdzhfqs7" class="animable"></path><path d="M175.53,113.49s-.44-.12-1.23-.28a9.94,9.94,0,0,0-3.38-.1,9.17,9.17,0,0,0-4.52,2,9.5,9.5,0,0,0-3.19,5.08v.06l-.18.66-.25-.63a10.2,10.2,0,0,0-3.82-4.63,10,10,0,0,0-4.68-1.58,10.94,10.94,0,0,0-3.36.28c-.78.19-1.19.36-1.21.32a1.56,1.56,0,0,1,.29-.16,6.82,6.82,0,0,1,.88-.33,10.05,10.05,0,0,1,8.3,1.13,10.37,10.37,0,0,1,4,4.8l-.42,0v-.06a9.77,9.77,0,0,1,3.37-5.3,9.41,9.41,0,0,1,8.2-1.72,5,5,0,0,1,.89.3Z" style="fill: rgb(38, 50, 56); transform-origin: 162.62px 116.818px;" id="elbt51dwlvjnp" class="animable"></path><path d="M135.18,99.63A16.21,16.21,0,0,1,134,101a29.14,29.14,0,0,0-2.89,3.91,28.51,28.51,0,0,0-4.31,15.22v.19l-.44,0a25.1,25.1,0,0,0-2.79-8.25,25.87,25.87,0,0,0-7.9-8.83c-.94-.65-1.48-1-1.46-1s.15,0,.41.2.67.34,1.14.66a22.7,22.7,0,0,1,3.8,3,25.28,25.28,0,0,1,4.38,5.74,25,25,0,0,1,2.86,8.38l-.45,0v-.2a28,28,0,0,1,4.48-15.39,25.43,25.43,0,0,1,3-3.86c.39-.43.74-.72,1-.93A1.63,1.63,0,0,1,135.18,99.63Z" style="fill: rgb(38, 50, 56); transform-origin: 124.695px 109.975px;" id="elhpt6mjcrcfv" class="animable"></path></g><defs>     <filter id="active" height="200%">         <feMorphology in="SourceAlpha" result="DILATED" operator="dilate" radius="2"></feMorphology>                <feFlood flood-color="#32DFEC" flood-opacity="1" result="PINK"></feFlood>        <feComposite in="PINK" in2="DILATED" operator="in" result="OUTLINE"></feComposite>        <feMerge>            <feMergeNode in="OUTLINE"></feMergeNode>            <feMergeNode in="SourceGraphic"></feMergeNode>        </feMerge>    </filter>    <filter id="hover" height="200%">        <feMorphology in="SourceAlpha" result="DILATED" operator="dilate" radius="2"></feMorphology>                <feFlood flood-color="#ff0000" flood-opacity="0.5" result="PINK"></feFlood>        <feComposite in="PINK" in2="DILATED" operator="in" result="OUTLINE"></feComposite>        <feMerge>            <feMergeNode in="OUTLINE"></feMergeNode>            <feMergeNode in="SourceGraphic"></feMergeNode>        </feMerge>            <feColorMatrix type="matrix" values="0   0   0   0   0                0   1   0   0   0                0   0   0   0   0                0   0   0   1   0 "></feColorMatrix>    </filter></defs></svg>